<svg width="600" height="600" viewBox="0 0 600 600" fill="none" xmlns="http://www.w3.org/2000/svg">
<path fill-rule="evenodd" clip-rule="evenodd" d="M542 300.5C542 166.571 433.429 58 299.5 58C165.571 58 57 166.571 57 300.5C57 434.429 165.571 543 299.5 543C433.429 543 542 434.429 542 300.5ZM335.696 192.099C323.182 181.241 304.234 182.584 293.376 195.098C282.518 207.613 283.861 226.56 296.375 237.419L332.169 268.475L186.045 268.475C169.476 268.475 156.045 281.906 156.045 298.475C156.045 315.043 169.476 328.475 186.045 328.475L334.958 328.475L295.849 364.049C283.593 375.198 282.695 394.171 293.844 406.428C304.992 418.684 323.966 419.582 336.223 408.433L432.709 320.667C439.05 314.899 442.621 306.694 442.52 298.123C442.42 289.551 438.657 281.433 432.183 275.815L335.696 192.099Z" fill="black"/>
</svg>
