<?xml version="1.0" encoding="UTF-8"?>
<svg width="367px" height="367px" viewBox="0 0 367 367" version="1.1" xmlns="http://www.w3.org/2000/svg" xmlns:xlink="http://www.w3.org/1999/xlink">
    <!-- Generator: Sketch 62 (91390) - https://sketch.com -->
    <title>html5-2</title>
    <desc>Created with Sketch.</desc>
    <g id="Page-1" stroke="none" stroke-width="1" fill="none" fill-rule="evenodd">
        <rect id="Rectangle" stroke="#FF2F2F" stroke-width="9" x="-10.5" y="-12.5" width="391" height="391"></rect>
        <g id="iconfinder_firebase_4691533" transform="translate(58.000000, 10.000000)" fill="#000000" fill-rule="nonzero">
            <path d="M8.34196891,226.607215 L42.6528497,6.66077656 C43.1622722,3.31668575 45.7670467,0.675690976 49.1132222,0.110570541 C52.4593977,-0.454549895 55.7917913,1.18374342 57.3782383,4.17387231 L94.2715026,73.1565477 L8.34196891,226.607215 Z M252,279.974445 L219.328497,77.5664651 C218.838852,74.6743605 216.772523,72.2954161 213.970705,71.3980926 C211.168888,70.500769 208.098838,71.2347118 206.010363,73.3011351 L0,279.974445 L113.987565,343.997771 C121.136656,348.000743 129.862307,348.000743 137.011399,343.997771 L252,279.974445 Z M159.367876,103.346409 L132.963731,53.0010563 C131.605898,50.4206025 128.923642,48.8040015 126,48.8040015 C123.076358,48.8040015 120.394102,50.4206025 119.036269,53.0010563 L3.11917098,260.021376 L159.367876,103.346409 Z" id="Shape"></path>
        </g>
    </g>
</svg>