<?xml version="1.0" encoding="UTF-8"?>
<svg width="367px" height="367px" viewBox="0 0 367 367" version="1.1" xmlns="http://www.w3.org/2000/svg" xmlns:xlink="http://www.w3.org/1999/xlink">
    <!-- Generator: Sketch 62 (91390) - https://sketch.com -->
    <title>javascript</title>
    <desc>Created with Sketch.</desc>
    <g id="Page-1" stroke="none" stroke-width="1" fill="none" fill-rule="evenodd">
        <g id="javascript" fill="#000000" fill-rule="nonzero">
            <path d="M337,0 C353.568542,-3.04359188e-15 367,13.4314575 367,30 L367,337 C367,353.568542 353.568542,367 337,367 L30,367 C13.4314575,367 2.02906125e-15,353.568542 0,337 L0,30 C-2.02906125e-15,13.4314575 13.4314575,3.04359188e-15 30,0 L337,0 Z M278.860537,166 C248.056105,166 228.342473,185.742319 228.342473,211.653754 C228.342473,239.785266 244.852478,253.111475 269.742965,263.719309 L269.742965,263.719309 L278.365797,267.424225 C294.137276,274.331452 303.501502,278.527485 303.501502,290.371727 C303.501502,300.242887 294.386797,307.39998 280.090937,307.39998 C263.089058,307.39998 253.478178,298.516798 246.082878,286.424125 L246.082878,286.424125 L217.993067,302.709959 C228.094385,322.700708 248.794631,338 280.829463,338 C313.604255,338 338,320.974619 338,289.879174 C338,261.009551 321.489994,248.178767 292.164048,235.592105 L292.164048,235.592105 L283.539783,231.891497 C268.754917,225.475387 262.347664,221.277919 262.347664,210.914207 C262.347664,202.525013 268.754917,196.108903 278.859103,196.108903 C288.716637,196.108903 295.121022,200.3035 301.036402,210.914207 L301.036402,210.914207 L327.898682,193.638959 C316.564096,173.651082 300.792617,166 278.860537,166 Z M199.254576,167.975955 L164.756078,167.975955 L164.756078,285.43902 C164.756078,302.711395 157.607431,307.15155 146.271411,307.15155 C134.444953,307.15155 129.514752,299.009351 124.094113,289.386622 L124.094113,289.386622 L96.001434,306.412002 L96.2463416,306.926445 C104.453942,323.967765 120.427939,337.995692 147.749898,337.995692 C178.309111,337.995692 199.254576,321.708422 199.254576,285.927264 L199.254576,285.927264 L199.254576,167.975955 Z" id="Path-4"></path>
        </g>
    </g>
</svg>