<?xml version="1.0" encoding="UTF-8"?>
<svg width="367px" height="367px" viewBox="0 0 367 367" version="1.1" xmlns="http://www.w3.org/2000/svg" xmlns:xlink="http://www.w3.org/1999/xlink">
    <!-- Generator: Sketch 62 (91390) - https://sketch.com -->
    <title>html5-2</title>
    <desc>Created with Sketch.</desc>
    <g id="Page-1" stroke="none" stroke-width="1" fill="none" fill-rule="evenodd">
        <rect id="Rectangle" stroke="#FF2F2F" stroke-width="9" x="-10.5" y="-12.5" width="391" height="391"></rect>
        <g id="nodejs-icon" transform="translate(19.000000, 2.000000)" fill="#000000" fill-rule="nonzero">
            <path d="M149.65596,3.87269871 C158.645581,-1.27925748 170.354556,-1.30252855 179.336429,3.87269871 C224.523413,29.4372612 269.724601,54.9617458 314.903838,80.5418223 C323.401496,85.3343698 329.085539,94.8031093 329,104.606694 L329,258.412948 C329.062297,268.622483 322.816563,278.317469 313.851476,283.001418 C268.812985,308.425062 223.797736,333.879733 178.766992,359.303376 C169.591433,364.556174 157.647452,364.151516 148.758548,358.468204 C135.256039,350.631025 121.730288,342.832631 108.226488,335.003209 C105.467106,333.356134 102.356506,332.045197 100.408023,329.366438 C102.130539,327.041917 105.210149,326.752322 107.712574,325.737444 C113.348842,323.942986 118.525428,321.062545 123.703305,318.267431 C125.012623,317.370202 126.61118,317.714097 127.866266,318.516949 C139.412544,325.145325 150.856815,331.966334 162.44183,338.531361 C164.913266,339.959946 167.415691,338.063354 169.528162,336.884287 C213.724764,311.874351 257.975598,286.958793 302.164452,261.941101 C303.801746,261.15247 304.706906,259.412311 304.573908,257.61656 C304.604898,206.879165 304.581656,156.13272 304.589403,105.395324 C304.776633,103.357813 303.599021,101.484492 301.759003,100.650612 C256.876752,75.343324 212.017743,49.997251 167.143239,24.6834989 C165.551827,23.5880689 163.451511,23.5849869 161.856898,24.6757419 C116.982394,49.997251 72.1311331,75.3665951 27.2566295,100.67259 C25.4230671,101.507763 24.1925143,103.350056 24.410734,105.395324 C24.4184815,156.13272 24.410734,206.879165 24.410734,257.624317 C24.2513648,259.418852 25.2252116,261.122869 26.8511798,261.894559 C38.8261502,268.693589 50.8166155,275.444785 62.7993334,282.220545 C69.5499421,285.858589 77.838419,288.020212 85.275968,285.232855 C91.8393468,282.876013 96.440039,276.170067 96.3147886,269.192625 C96.3767682,218.751289 96.2837988,168.302196 96.3612733,117.868618 C96.1972857,115.629424 98.3187949,113.779374 100.493245,113.990106 C106.247016,113.951321 112.008534,113.912536 117.762304,114.00562 C120.164013,113.951321 121.816801,116.362462 121.519816,118.618463 C121.496573,169.37913 121.581795,220.141089 121.481079,270.901755 C121.496573,284.430004 115.945528,299.150248 103.447605,305.769574 C88.0508453,313.755429 69.0205332,312.061813 53.8097125,304.404338 C40.6416353,297.823797 28.0752764,290.057724 15.1409138,283.007883 C6.1525842,278.34979 -0.0621594445,268.616019 0,258.414241 L0,104.606694 C-0.0931492321,94.6001339 5.8168615,84.959447 14.5792239,80.2367128 C59.6099677,54.7923841 104.632964,29.3286629 149.65596,3.87269871 Z" id="Path"></path>
            <path d="M188.5108,110.503533 C208.181651,109.232302 229.240196,109.750404 246.941376,119.480058 C260.646307,126.93604 268.244352,142.584254 268.486196,157.871485 C268.103384,159.933502 265.956532,161.070987 263.995913,160.929451 C258.288651,160.92166 252.580094,161.007361 246.872832,160.890496 C244.451804,160.983988 243.044711,158.742778 242.740789,156.593762 C241.100905,149.279316 237.127936,142.034989 230.270944,138.506967 C219.744904,133.215583 207.540182,133.481775 196.062286,133.592147 C187.683098,134.038831 178.672788,134.767289 171.573951,139.714571 C166.124052,143.46204 164.468648,151.027096 166.413747,157.119654 C168.247624,161.494298 173.277206,162.905766 177.392436,164.206863 C201.098334,170.431868 226.219084,169.812484 249.472333,178.004715 C259.09954,181.344455 268.517235,187.836951 271.812522,197.957454 C276.123038,211.521576 274.23355,227.734637 264.621863,238.623851 C256.827239,247.584794 245.474792,252.461957 234.152089,255.110895 C219.089209,258.483098 203.457284,258.568799 188.16032,257.071629 C173.776414,255.425132 158.807944,251.630918 147.703806,241.790891 C138.208514,233.512958 133.570798,220.614966 134.031207,208.166254 C134.141136,206.063984 136.22591,204.597978 138.231793,204.770679 C143.979148,204.723933 149.726503,204.708351 155.473857,204.77847 C157.769436,204.61356 159.471398,206.605458 159.589087,208.777847 C160.64958,215.746893 163.258134,223.061338 169.310704,227.193163 C180.991646,234.759518 195.648435,234.241416 209.023579,234.453072 C220.104437,233.959642 232.543244,233.810315 241.585886,226.456914 C246.356811,222.262761 247.770371,215.245672 246.480967,209.208949 C245.08422,204.11234 239.773995,201.737385 235.213875,200.18438 C211.8119,192.75177 186.410506,195.448753 163.234855,187.043568 C153.826213,183.705127 144.72796,177.393122 141.11323,167.688139 C136.069422,153.952615 138.380521,136.963051 148.999677,126.441312 C159.35371,115.975409 174.300194,111.944867 188.5108,110.502235 L188.5108,110.503533 Z" id="Path"></path>
        </g>
    </g>
</svg>