<?xml version="1.0" encoding="UTF-8"?>
<svg width="367px" height="327px" viewBox="0 0 367 327" version="1.1" xmlns="http://www.w3.org/2000/svg" xmlns:xlink="http://www.w3.org/1999/xlink">
    <!-- Generator: Sketch 62 (91390) - https://sketch.com -->
    <title>react-2</title>
    <desc>Created with Sketch.</desc>
    <g id="Page-1" stroke="none" stroke-width="1" fill="none" fill-rule="evenodd">
        <g id="react-2" fill="#000000" fill-rule="nonzero">
            <path d="M367,163.537423 C367,139.212634 336.553812,116.16022 289.874643,101.864729 C300.646759,54.2629892 295.859152,16.391165 274.763759,4.26619364 C269.901345,1.42206455 264.216062,0.0748455024 258.007134,0.0748455024 L258.007134,16.7653925 C261.448227,16.7653925 264.216062,17.4390021 266.535059,18.7113756 C276.708724,24.5493248 281.122299,46.778439 277.681207,75.3694209 C276.858337,82.4048981 275.511822,89.8146029 273.866082,97.3739986 C259.204036,93.7814145 243.195475,91.0121309 226.364044,89.2158389 C216.265185,75.3694209 205.792295,62.7953765 195.244598,51.7930877 C219.631472,29.1149004 242.522218,16.690547 258.08194,16.690547 L258.08194,0 C237.510192,0 210.579902,14.6697185 183.350387,40.1171893 C156.120872,14.8194095 129.190583,0.29938201 108.618834,0.29938201 L108.618834,16.989929 C124.103751,16.989929 147.069303,29.3394369 171.456176,51.8679332 C160.983286,62.870222 150.510395,75.3694209 140.56115,89.2158389 C123.654912,91.0121309 107.646351,93.7814145 92.9843049,97.4488441 C91.2637587,89.9642939 89.9920506,82.7042802 89.0943742,75.7436484 C85.5784753,47.1526665 89.9172442,24.9235523 100.016103,19.0107576 C102.260294,17.6635386 105.177742,17.0647745 108.618834,17.0647745 L108.618834,0.374227512 C102.3351,0.374227512 96.6498166,1.72144656 91.7125968,4.56557565 C70.6920098,16.690547 65.9792091,54.4875257 76.8261313,101.939574 C30.2965756,116.309911 0,139.28748 0,163.537423 C0,187.862211 30.4461883,210.914626 77.1253567,225.210117 C66.3532409,272.811856 71.1408479,310.68368 92.2362413,322.808652 C97.0986547,325.652781 102.783938,327 109.067672,327 C129.639421,327 156.569711,312.330282 183.799225,286.882811 C211.02874,312.180591 237.95903,326.700618 258.530779,326.700618 C264.814513,326.700618 270.499796,325.353399 275.437016,322.50927 C296.457603,310.384298 301.170404,272.58732 290.323481,225.135271 C336.703424,210.83978 367,187.787366 367,163.537423 L367,163.537423 Z M269.60212,113.615473 C266.834285,123.270542 263.393192,133.224994 259.503261,143.179446 C256.436201,137.191806 253.219527,131.204166 249.703628,125.216526 C246.262536,119.228885 242.597024,113.390936 238.931512,107.702678 C249.554015,109.274434 259.802487,111.220417 269.60212,113.615473 Z M235.340807,193.325933 C229.505911,203.430076 223.521402,213.0103 217.312475,221.916915 C206.166327,222.889906 194.870567,223.413825 183.5,223.413825 C172.20424,223.413825 160.908479,222.889906 149.837138,221.99176 C143.62821,213.085145 137.568895,203.579767 131.733999,193.550469 C126.048716,183.745708 120.887077,173.791257 116.174276,163.761959 C120.812271,153.732662 126.048716,143.703365 131.659193,133.898604 C137.494089,123.794461 143.478598,114.214237 149.687525,105.307622 C160.833673,104.33463 172.129433,103.810712 183.5,103.810712 C194.79576,103.810712 206.091521,104.33463 217.162862,105.232776 C223.37179,114.139391 229.431105,123.64477 235.266001,133.674067 C240.951284,143.478828 246.112923,153.43328 250.825724,163.462577 C246.112923,173.491875 240.951284,183.521172 235.340807,193.325933 Z M259.503261,183.596017 C263.542805,193.625315 266.983897,203.654612 269.826539,213.384527 C260.026906,215.779583 249.703628,217.800412 239.006319,219.372168 C242.67183,213.609064 246.337342,207.696269 249.778435,201.633783 C253.219527,195.646143 256.436201,189.583658 259.503261,183.596017 Z M183.649613,263.456168 C176.692621,256.271 169.73563,248.262531 162.853445,239.505608 C169.586017,239.80499 176.468202,240.029526 183.425194,240.029526 C190.456991,240.029526 197.413983,239.879835 204.221362,239.505608 C197.488789,248.262531 190.531798,256.271 183.649613,263.456168 Z M127.993681,219.372168 C117.371178,217.800412 107.122707,215.854429 97.3230738,213.459373 C100.090909,203.804303 103.532002,193.849851 107.421932,183.895399 C110.488993,189.88304 113.705667,195.87068 117.221565,201.85832 C120.737464,207.84596 124.32817,213.683909 127.993681,219.372168 Z M183.275581,63.618677 C190.232572,70.8038453 197.189564,78.812314 204.071749,87.5692378 C197.339177,87.2698558 190.456991,87.0453193 183.5,87.0453193 C176.468202,87.0453193 169.511211,87.1950103 162.703832,87.5692378 C169.436404,78.812314 176.393396,70.8038453 183.275581,63.618677 Z M127.918875,107.702678 C124.253363,113.465782 120.587852,119.378576 117.146759,125.441062 C113.705667,131.428702 110.488993,137.416342 107.421932,143.403983 C103.382389,133.374685 99.9412964,123.345388 97.0986547,113.615473 C106.898288,111.295262 117.221565,109.274434 127.918875,107.702678 Z M60.2191194,201.409247 C33.7376682,190.107576 16.6070118,175.288167 16.6070118,163.537423 C16.6070118,151.786679 33.7376682,136.892424 60.2191194,125.665599 C66.6524664,122.896315 73.6842642,120.426413 80.940481,118.106203 C85.2044435,132.775921 90.8149205,148.044404 97.7719119,163.687114 C90.8897269,179.254978 85.3540563,194.448615 81.1649001,209.043488 C73.7590705,206.723278 66.7272727,204.178531 60.2191194,201.409247 Z M100.464941,308.36347 C90.291276,302.525521 85.8777008,280.296407 89.3187933,251.705425 C90.1416633,244.669947 91.4881777,237.260243 93.1339177,229.700847 C107.795964,233.293431 123.804525,236.062715 140.635956,237.859007 C150.734815,251.705425 161.207705,264.279469 171.755402,275.281758 C147.368528,297.959945 124.477782,310.384298 108.91806,310.384298 C105.551773,310.309453 102.709132,309.635843 100.464941,308.36347 L100.464941,308.36347 Z M277.905626,251.331197 C281.421525,279.922179 277.082756,302.151293 266.983897,308.064088 C264.739706,309.411307 261.822258,310.010071 258.381166,310.010071 C242.896249,310.010071 219.930697,297.660563 195.543824,275.132067 C206.016714,264.129778 216.489605,251.630579 226.43885,237.784161 C243.345088,235.987869 259.353649,233.218585 274.015695,229.551156 C275.736241,237.110552 277.082756,244.370565 277.905626,251.331197 L277.905626,251.331197 Z M306.706074,201.409247 C300.272727,204.178531 293.240929,206.648432 285.984713,208.968643 C281.72075,194.298924 276.110273,179.030442 269.153282,163.387732 C276.035467,147.819867 281.571137,132.62623 285.760294,118.031357 C293.166123,120.351568 300.197921,122.896315 306.780881,125.665599 C333.262332,136.967269 350.392988,151.786679 350.392988,163.537423 C350.318182,175.288167 333.187525,190.182422 306.706074,201.409247 L306.706074,201.409247 Z" id="Shape"></path>
            <circle id="Oval" cx="183.5" cy="163.5" r="34.5"></circle>
        </g>
    </g>
</svg>