<?xml version="1.0" encoding="UTF-8"?>
<svg width="367px" height="367px" viewBox="0 0 367 367" version="1.1" xmlns="http://www.w3.org/2000/svg" xmlns:xlink="http://www.w3.org/1999/xlink">
    <!-- Generator: Sketch 62 (91390) - https://sketch.com -->
    <title>html5-2</title>
    <desc>Created with Sketch.</desc>
    <g id="Page-1" stroke="none" stroke-width="1" fill="none" fill-rule="evenodd">
        <rect id="Rectangle" stroke="#FF2F2F" stroke-width="9" x="-10.5" y="-12.5" width="391" height="391"></rect>
        <g id="iconfinder_Ruby_on_Rails_2_282804" transform="translate(59.000000, 25.000000)" fill="#000000" fill-rule="nonzero">
            <g id="layer7" transform="translate(16.000000, 261.000000)">
                <path d="M0.309290647,0.091503268 L0.309290647,55.1815948 L14.1754522,55.1815948 L14.1754522,40.8333333 L26.794927,53.620915 L48.0707745,53.620915 L31.1947215,36.5200523 C31.1947215,36.5200523 43.3352433,36.3202092 44.2532367,18.5294118 C44.2532367,2.2065098 32.0986281,0.091503268 18.0610765,0.091503268 L0.309290647,0.091503268 Z M14.8351866,15.0345359 L26.794927,15.0345359 L26.794927,24.8482614 L14.8351866,24.8482614 L14.8351866,15.0345359 Z" id="path3993"></path>
                <path d="M74.8522348,0.315137255 C67.2594197,0.269934641 56.7294951,0.983660131 56.7294951,15.4818039 L56.7294951,53.7707974 L70.9619149,53.7707974 L70.9619149,44.4019608 L84.7552943,44.4019608 L84.7552943,53.5471634 L99.062844,53.5471634 L99.062844,13.4001046 C99.062844,0.807607843 85.2553777,0.315137255 77.8597785,0.315137255 C76.9347417,0.315137255 75.9369227,0.32227451 74.8522348,0.315137255 Z M71.182609,14.1423791 L84.5369481,14.1423791 L84.5369481,29.2352941 L71.182609,29.2352941 L71.182609,14.1423791 Z" id="path3997"></path>
                <rect id="rect4001" x="113.323437" y="0.350823529" width="14.7254597" height="52.7014902"></rect>
                <polygon id="path4003" points="143.471656 1.05027451 143.471656 53.7517647 178.909489 53.7517647 178.909489 39.760366 157.969378 39.760366 157.969378 0.817124183"></polygon>
                <path d="M225.856283,0.583973856 L225.856283,14.8085229 L202.152801,14.8085229 L202.152801,19.9378301 C202.152801,19.9378301 206.98694,19.9378301 212.276555,19.9378301 C217.566169,19.9378301 228.614959,19.7046797 228.614959,36.4962614 C228.614959,53.2854641 221.022144,54.2180654 205.604081,54.2180654 C190.183669,54.2180654 186.964823,54.2180654 186.964823,54.2180654 L186.964823,41.3900392 C186.964823,41.3900392 201.922716,41.3900392 208.365104,41.3900392 C214.807493,41.3900392 215.16436,39.2631373 215.16436,37.4122092 C215.16436,35.561281 211.870384,34.6976732 205.169736,34.6976732 C198.469088,34.6976732 186.044482,31.3621961 186.044482,18.3033987 C186.044482,5.24460131 192.48687,0.346065359 205.373995,0.346065359 C218.26112,0.346065359 225.856283,0.583973856 225.856283,0.583973856 L225.856283,0.583973856 Z" id="path4005"></path>
            </g>
            <g id="layer6">
                <path d="M27.3716897,246.868267 L150.094603,246.868267 C150.094603,246.868267 122.874621,185.073571 129.793759,128.352962 C136.71525,71.6323524 181.466069,45.8055619 206.840948,43.0391619 C232.213474,40.2704095 246.056457,55.951381 246.056457,55.951381 L251.594121,47.6498286 C251.594121,47.6498286 215.146267,10.7574381 169.009267,14.9093905 C122.872267,19.0589905 91.0395259,49.4940952 71.2023103,86.3864857 C51.3627414,123.281229 39.8284914,149.103314 31.9868017,187.839971 C24.1451121,226.576629 27.3716897,246.868267 27.3716897,246.868267 Z" id="path3966"></path>
                <polygon id="path3968" points="2.92171552 185.073571 26.9127672 186.917838 22.758931 210.895657 0.154060345 208.129257"></polygon>
                <polygon id="path3970" points="40.7533966 134.346829 47.2136121 116.362876 25.9902155 108.061324 19.0710776 127.428476"></polygon>
                <polygon id="path3972" points="70.7410345 72.5521333 83.1978362 57.798 67.0508276 47.1911143 54.13275 61.484181"></polygon>
                <polygon id="path3974" points="103.496328 15.3704571 114.569302 28.7437429 129.793759 19.9811238 118.720784 7.52997143"></polygon>
                <polygon id="path3976" points="157.477371 0.152904762 160.245026 13.5285429 179.162043 13.0674762 177.314586 1.07739048"></polygon>
                <polygon id="path3978" points="221.606483 14.4483238 221.145207 22.7475238 234.063284 29.6635238 236.83094 25.5139238"></polygon>
                <polygon id="path3980" points="218.836474 49.9575143 218.836474 56.8735143 231.293276 58.2567143 231.293276 52.7215619"></polygon>
                <polygon id="path3982" points="179.162043 55.951381 185.158629 67.016981 193.925224 60.100981 192.080121 52.7215619"></polygon>
                <polygon id="path3984" points="160.242672 70.2491524 169.470543 84.0835048 163.932879 93.7659048 150.553526 79.0117714"></polygon>
                <polygon id="path3986" points="141.791638 108.52239 135.792698 120.512476 151.478431 133.888114 155.168638 118.66821"></polygon>
                <polygon id="path3988" points="135.331422 150.486514 134.408871 166.6262 153.78481 174.927752 152.862259 159.707848"></polygon>
                <polygon id="path3990" points="140.866733 207.670543 145.481845 224.273648 169.931819 225.656848 161.165224 207.670543"></polygon>
            </g>
        </g>
    </g>
</svg>