<?xml version="1.0" encoding="UTF-8"?>
<svg width="367px" height="367px" viewBox="0 0 367 367" version="1.1" xmlns="http://www.w3.org/2000/svg" xmlns:xlink="http://www.w3.org/1999/xlink">
    <!-- Generator: Sketch 62 (91390) - https://sketch.com -->
    <title>html5-2</title>
    <desc>Created with Sketch.</desc>
    <g id="Page-1" stroke="none" stroke-width="1" fill="none" fill-rule="evenodd">
        <rect id="Rectangle" stroke="#FF2F2F" stroke-width="9" x="-10.5" y="-12.5" width="391" height="391"></rect>
        <g id="iconfinder_Ruby_on_Rails_2_282804" transform="translate(19.000000, 22.000000)" fill="#000000" fill-rule="nonzero">
            <g id="layer6">
                <path d="M35.8625786,324 L196.85183,324 C196.85183,324 161.144361,242.860878 170.220962,168.384251 C179.300649,93.9076246 238.00526,59.9959256 271.292302,56.3635221 C304.576257,52.7280299 322.735632,73.3178272 322.735632,73.3178272 L330,62.417528 C330,62.417528 282.18731,13.976215 221.664292,19.4279091 C161.141274,24.8765143 119.382738,64.8391303 93.3600631,113.280443 C67.3343009,161.724845 52.2035464,195.630366 41.9167327,246.493282 C31.629919,297.356197 35.8625786,324 35.8625786,324 Z" id="path3966"></path>
                <polygon id="path3968" points="3.62005277 243 35 245.42835 29.5668426 277 0 273.357475"></polygon>
                <polygon id="path3970" points="53.5065228 176 62 152.737963 34.0968389 142 25 167.05119"></polygon>
                <polygon id="path3972" points="92.7138462 95 109 75.8017809 87.8892308 62 71 80.5982747"></polygon>
                <polygon id="path3974" points="136 20.3486361 150.737337 38 171 26.4342426 156.262663 10"></polygon>
                <polygon id="path3976" points="207 0 210.573692 18 235 17.3795287 232.6145 1.24410834"></polygon>
                <polygon id="path3978" points="290.617554 19 290 29.9090909 307.294674 39 311 33.5454545"></polygon>
                <polygon id="path3980" points="288 65 288 74.1666667 304 76 304 68.6635488"></polygon>
                <polygon id="path3982" points="236 73.2927431 243.71752 88 255 78.8079645 252.625379 69"></polygon>
                <polygon id="path3984" points="210.804802 92 223 110.236571 215.681637 123 198 103.550965"></polygon>
                <polygon id="path3986" points="186.740192 142 179 157.59872 199.238674 175 204 155.199388"></polygon>
                <polygon id="path3988" points="178.190332 197 177 218.131088 202 229 200.809668 209.073147"></polygon>
                <polygon id="path3990" points="185 272 191.033846 294.154329 223 296 211.538462 272"></polygon>
            </g>
        </g>
    </g>
</svg>