<?xml version="1.0" encoding="UTF-8"?>
<svg width="367px" height="367px" viewBox="0 0 367 367" version="1.1" xmlns="http://www.w3.org/2000/svg" xmlns:xlink="http://www.w3.org/1999/xlink">
    <!-- Generator: Sketch 62 (91390) - https://sketch.com -->
    <title>Ruby</title>
    <desc>Created with Sketch.</desc>
    <g id="Page-1" stroke="none" stroke-width="1" fill="none" fill-rule="evenodd">
        <rect id="Rectangle" stroke="#FF2F2F" stroke-width="9" x="-10.5" y="-16.5" width="391" height="391"></rect>
        <g id="Ruby" transform="translate(185.000000, 146.000000) rotate(40.000000) translate(-185.000000, -146.000000) translate(46.000000, 12.000000)" fill="#000000">
            <path d="M76.2002667,240.338978 C157.52568,251.462388 218.737827,259.833753 259.836707,265.453073 C238.833168,230.421739 218.369619,196.286054 197.742504,161.872022 L76.2002667,240.338978 Z M260.927887,70.9153618 C242.321808,98.9588357 223.71797,127.00231 205.129816,155.059252 C204.094651,156.621587 202.752522,157.860681 204.211164,160.269282 C222.171945,189.982838 239.991567,219.78394 257.856002,249.558104 C260.674697,254.260824 263.524761,258.945586 267.170244,263.457503 C270.782118,191.192751 274.391751,118.925753 278.001384,46.6610006 L277.205965,46.4320376 C271.781433,54.5938939 266.345697,62.749016 260.927887,70.9153618 Z M35.9319086,139.857907 C53.1600082,131.375053 70.497898,123.080758 87.349574,113.899792 C92.845806,110.90756 97.0716086,105.542643 101.806031,101.192347 C117.483624,86.7878827 133.13657,72.3542369 148.782795,57.9183464 C149.739538,57.0316761 150.87329,56.1741873 151.444647,55.0563093 C157.064113,44.0526185 162.587232,32.9928094 168.305286,21.6142479 C161.48709,19.0462711 155.022911,16.5344126 148.478071,14.2492724 C147.590787,13.939499 146.192642,14.5545564 145.231418,15.0910481 C130.08261,23.569412 114.649244,31.5965842 99.9821693,40.8426475 C92.6441506,45.4690463 86.666186,52.2863064 80.1683984,58.2236303 C69.6957573,67.7996697 59.2365599,77.3981564 48.9162807,87.1403061 C46.1782474,89.7262408 43.6822007,92.680312 41.5491339,95.7915147 C34.4911922,106.088114 27.6438685,116.532866 20.4828584,127.273922 C24.4845993,131.419948 28.1233604,135.38415 32.0175517,139.078984 C32.8577829,139.875865 34.9549998,140.340525 35.9319086,139.857907 Z M94.9833541,125.002251 C86.4129963,161.274923 77.8941727,197.343324 69.0907908,234.596946 C110.369667,207.949697 150.696281,181.917506 190.756262,156.060404 C158.876772,145.723399 127.10035,135.417821 94.9833541,125.002251 Z M163.279583,64.0891228 C175.024894,92.7117383 186.534941,120.759702 198.372117,149.604546 C221.273458,115.127662 243.722193,81.3421557 266.68403,46.7822162 C231.806595,52.6207719 197.762669,58.3179092 163.279583,64.0891228 Z M96.4218298,117.583402 C127.82855,127.796946 158.610138,137.808464 190.285733,148.111797 C178.522496,119.401637 167.162571,91.6948734 155.567381,63.4022339 C135.816348,81.492553 116.361075,99.3157486 96.4218298,117.583402 Z M33.3148686,160.231121 C22.1767644,186.905307 11.4173244,212.672619 0.462950785,238.904592 C21.5157826,238.280556 41.9233169,237.676722 63.0321641,237.052686 C53.1219177,211.43577 43.4066049,186.321676 33.3148686,160.231121 Z M64.5468208,218.639125 C72.0596076,187.345275 79.679944,156.266919 87.349574,123.749689 C70.2402271,132.659042 53.9195771,141.155363 37.1530445,149.887382 C45.7099586,172.168622 54.8337486,195.673242 63.7715675,218.809725 L64.5468208,218.639125 Z M254.060397,41.7068705 C244.069489,39.0558385 234.07858,36.3958276 224.08319,33.7627535 C209.716358,29.9781303 195.338323,26.2406466 180.980453,22.4223524 C179.185719,21.9442239 177.888402,21.6322057 176.833072,23.798375 C171.758075,34.2139452 166.526236,44.5509497 161.370578,54.9283594 C161.211494,55.2493565 161.245103,55.6646325 161.121869,56.4704923 C192.235069,51.74757 223.139891,47.0538292 254.040232,42.3623331 L254.060397,41.7068705 Z M196.097892,18.0159377 L277.528614,40.584503 C272.859169,27.2530221 268.528058,14.8912666 264.073712,2.17708783 L196.216644,17.2504831 L196.097892,18.0159377 Z M70.6749066,246.348133 C60.5898922,245.183116 50.2360037,246.253854 40.0075898,246.431188 C31.6052783,246.572607 23.2029667,246.893604 14.8006552,247.156238 C13.9357773,247.183175 13.0731399,247.358264 12.2105026,248.292074 C81.6763332,254.725484 151.139923,261.158895 220.603513,267.596794 L220.744672,266.667474 C198.477426,263.621369 176.20794,260.575263 153.940694,257.531403 C126.1929,253.735556 98.4921594,249.560349 70.6749066,246.348133 Z M1.83644864,214.892662 C10.7877112,194.083969 19.7008833,173.261808 28.6879957,152.468828 C29.5864829,150.383469 29.5170238,148.967041 27.7581399,147.287979 C23.9983856,143.703138 20.5052646,139.839949 16.3959741,135.556995 C10.841486,163.03255 5.42367552,189.827952 0.00138380403,216.621108 L0.608590851,216.90619 C1.02310489,216.239503 1.5294842,215.608733 1.83644864,214.892662 Z M178.262585,12.5230713 C193.357618,8.6217219 208.672231,5.57112709 223.897219,2.16810889 C224.883091,1.94588012 225.846556,1.62039356 226.816743,1.34204642 L226.666621,0.596794413 C205.221682,3.48576831 183.778982,6.37698694 161.254066,9.41411334 C167.395595,12.1010611 172.127777,14.1078541 178.262585,12.5230713 Z" id="Shape"></path>
        </g>
    </g>
</svg>