<?xml version="1.0" encoding="UTF-8"?>
<svg width="367px" height="367px" viewBox="0 0 367 367" version="1.1" xmlns="http://www.w3.org/2000/svg" xmlns:xlink="http://www.w3.org/1999/xlink">
    <!-- Generator: Sketch 62 (91390) - https://sketch.com -->
    <title>html5-2</title>
    <desc>Created with Sketch.</desc>
    <g id="Page-1" stroke="none" stroke-width="1" fill="none" fill-rule="evenodd">
        <rect id="Rectangle" stroke="#FF2F2F" stroke-width="9" x="-10.5" y="-12.5" width="391" height="391"></rect>
        <g id="sass-1" transform="translate(2.000000, 46.000000)" fill="#000000" fill-rule="nonzero">
            <path d="M315.931193,157.912728 C303.099409,157.985106 291.988087,161.065832 282.668914,165.652881 C279.227989,158.845044 275.787063,152.896427 275.214293,148.454134 C274.569119,143.29451 273.780574,140.140689 274.569119,133.978522 C275.356948,127.81492 278.941245,119.072224 278.941245,118.355609 C278.868842,117.710656 278.151983,114.557553 270.769047,114.485891 C263.386111,114.41423 257.005345,115.91912 256.288486,117.853979 C255.571627,119.788838 254.137908,124.231848 253.20599,128.818181 C251.915643,135.554357 238.438685,159.417619 230.768289,171.958372 C228.259281,167.085393 226.108703,162.785707 225.67787,159.345241 C225.033414,154.186333 224.244151,151.032513 225.033414,144.870345 C225.821959,138.706744 229.406256,129.964764 229.406256,129.248149 C229.33457,128.603196 228.617711,125.450093 221.234775,125.378431 C213.850406,125.30677 207.471074,126.81166 206.754214,128.746519 C206.037355,130.681378 205.248809,135.267711 203.671719,139.710721 C202.165597,144.15373 184.24411,183.997495 179.584524,194.388405 C177.218888,199.691352 175.140712,203.919377 173.63459,206.785835 C172.129185,209.652293 173.562904,207.000819 173.419533,207.287465 C172.129185,209.723954 171.412326,211.085522 171.412326,211.085522 L171.412326,211.1579 C170.408723,212.949436 169.333434,214.668594 168.830915,214.668594 C168.472485,214.668594 167.755626,209.867277 168.974287,203.275141 C171.626667,189.443765 178.078402,167.874386 178.007433,167.08611 C178.007433,166.727803 179.225377,162.92903 173.848931,160.994887 C168.615857,159.060028 166.75274,162.284793 166.321907,162.284793 C165.891791,162.284793 165.533362,163.431376 165.533362,163.431376 C165.533362,163.431376 171.339923,139.138862 154.42204,139.138862 C143.81252,139.138862 129.188587,150.676355 121.948307,161.210588 C117.360406,163.718739 107.611117,169.020969 97.2883411,174.68294 C93.3456141,176.832783 89.2595152,179.12595 85.3884741,181.204132 L84.6006456,180.342761 C64.098465,158.48602 26.1765996,143.007147 27.7536904,113.625954 C28.327178,102.948398 32.0548472,74.7854497 100.587328,40.6746009 C156.717424,12.7266366 201.664512,20.3944114 209.477563,37.4498358 C220.588885,61.8147278 185.462771,107.104762 127.111128,113.625954 C104.888485,116.134105 93.2029591,107.534731 90.2645521,104.309966 C87.1820565,100.941878 86.7519408,100.798555 85.6049657,101.443508 C83.7411311,102.446768 84.8881062,105.456549 85.6049657,107.248085 C87.3254284,111.762756 94.4940229,119.788838 106.680634,123.801879 C117.361123,127.31329 143.455524,129.248149 174.99734,117.065703 C210.338512,103.378367 237.937601,65.3978001 229.837089,33.6517791 C221.593205,1.3324665 167.972117,-9.27342766 117.290154,8.71359554 C87.1096537,19.4628126 54.4208623,36.2315912 30.9078721,58.2316554 C2.95035317,84.3164221 -1.49417548,107.104762 0.369659115,116.564073 C6.89379705,150.316615 53.4172591,172.316679 72.055605,188.583828 C71.1236877,189.084741 70.2634564,189.586371 69.474911,190.017056 C60.155738,194.602672 24.6711948,213.163704 15.7821375,232.798224 C5.74610506,255.013272 17.3592283,270.994492 25.1013105,273.144335 C49.0444164,279.80885 73.5610099,267.841388 86.8229099,248.13449 C100.012407,228.427592 98.4360331,202.844456 92.3427277,191.16364 L92.126953,190.733671 L99.4389195,186.433984 C104.170909,183.639188 108.830495,181.059376 112.915877,178.837154 C110.622644,185.0717 108.97315,192.452829 108.113636,203.202046 C107.110033,215.815177 112.271421,232.153271 119.081586,238.602801 C122.092395,241.396881 125.676693,241.469259 127.898957,241.469259 C135.784411,241.469259 139.368708,234.947351 143.311435,227.136969 C148.18608,217.605997 152.487236,206.570134 152.487236,206.570134 C152.487236,206.570134 147.11079,236.452958 161.806409,236.452958 C167.182855,236.452958 172.559301,229.501797 174.996623,225.918725 L174.996623,225.990386 C174.996623,225.990386 175.139995,225.775402 175.426739,225.273772 C175.727523,224.829178 176.014406,224.375341 176.28697,223.912921 L176.28697,223.769598 C178.437549,220.043203 183.240507,211.515491 190.409102,197.398186 C199.655872,179.196178 208.545646,156.407838 208.545646,156.407838 C208.545646,156.407838 209.405877,161.997431 212.058257,171.170096 C213.634631,176.617083 217.075557,182.564266 219.727937,188.368843 C217.577358,191.378624 216.287011,193.099215 216.287011,193.099215 L216.358697,193.170877 C214.638951,195.464043 212.702714,197.901249 210.696224,200.337021 C203.384258,209.079718 194.638573,219.041376 193.491597,221.907834 C192.129564,225.275205 192.416308,227.783356 195.068688,229.790593 C197.004209,231.223822 200.445134,231.509751 204.101117,231.223822 C210.696224,230.793136 215.284125,229.14564 217.578075,228.141663 C221.162372,226.851757 225.248471,224.916898 229.191198,222.05044 C236.359793,216.748209 240.732636,209.223758 240.30252,199.191155 C240.087462,193.673224 238.295314,188.226954 236.073049,183.067329 C236.718223,182.135731 237.364113,181.203415 238.00857,180.200871 C249.334949,163.646361 258.080635,145.44507 258.080635,145.44507 C258.080635,145.44507 258.940866,151.034663 261.593246,160.207328 C262.954562,164.865322 265.679345,169.954001 268.116667,174.970302 C257.507147,183.641338 250.840354,193.67394 248.546404,200.266793 C244.316933,212.449239 247.614487,217.967171 253.851164,219.257077 C256.646199,219.830368 260.661329,218.540462 263.671422,217.250556 C267.399091,216.032312 271.915305,213.953413 276.073807,210.872687 C283.242402,205.56974 290.124252,198.188611 289.765823,188.22767 C289.550765,183.641338 288.332104,179.126666 286.683327,174.82698 C295.715756,171.100584 307.399849,168.950741 322.239556,170.742277 C354.139802,174.468672 360.448165,194.390555 359.230221,202.703282 C358.01156,211.016727 351.344767,215.602343 349.121786,217.035572 C346.899522,218.397139 346.182662,218.899486 346.39772,219.90203 C346.684464,221.407637 347.688067,221.335259 349.623588,221.04933 C352.275968,220.618644 366.398099,214.241492 366.971586,198.906659 C367.831818,179.196895 349.121786,157.698461 315.931193,157.912728 L315.931193,157.912728 Z M70.3687092,240.531208 C59.7453648,252.033827 44.7859614,256.391962 38.4264082,252.67683 C31.5609816,248.747364 34.2341619,231.814938 47.3153291,219.59787 C55.2647705,212.167607 65.5990443,205.308902 72.3922034,201.093657 C73.909824,200.164874 76.2223888,198.808137 78.9685594,197.164191 C79.4021653,196.879126 79.6912359,196.735522 79.6912359,196.735522 C80.1971095,196.449743 80.7752507,196.092518 81.3533919,195.735294 C86.1953244,213.167835 81.5701948,228.45703 70.3687092,240.531208 L70.3687092,240.531208 Z M147.15161,188.601378 C143.484972,197.520162 135.720326,220.423599 131.04716,219.139294 C127.020329,218.06904 124.576623,200.730924 130.255598,183.606859 C133.131392,174.972762 139.242456,164.699037 142.837199,160.702708 C148.661402,154.281184 154.987431,152.140676 156.569837,154.780636 C158.439103,158.206162 149.452245,183.036057 147.15161,188.601378 Z M210.655768,218.925454 C209.10787,219.711076 207.700689,220.281205 207.067458,219.853786 C206.574944,219.568365 207.699985,218.498035 207.699985,218.498035 C207.699985,218.498035 215.509838,210.00675 218.605636,206.082207 C220.364612,203.79955 222.475383,201.159402 224.726872,198.161765 L224.726872,199.018029 C224.727576,209.292483 215.018029,216.142595 210.655768,218.925454 Z M260.10867,207.867647 C258.970173,207.007292 259.113196,204.35453 262.954913,196.037763 C264.449902,192.739734 267.864682,187.219122 273.770637,181.985294 C274.482197,184.136182 274.909845,186.214657 274.837978,188.151173 C274.767533,201.056502 265.659555,205.860152 260.10867,207.867647 Z" id="Shape"></path>
        </g>
    </g>
</svg>