<svg width="688" height="155" viewBox="0 0 688 155" fill="none" xmlns="http://www.w3.org/2000/svg">
<path d="M107.038 136.73L107.053 136.748L107.068 136.766C115.645 146.651 128.037 151.4 143.734 151.4C159.427 151.4 171.766 146.653 180.214 136.75C188.698 126.828 192.734 113.039 192.734 95.8C192.734 78.6964 188.699 65.0347 180.208 55.2435C171.761 45.3453 159.423 40.6 143.734 40.6C128.037 40.6 115.645 45.349 107.068 55.2339L107.06 55.2435L107.051 55.2531C98.6998 65.0446 94.7338 78.7019 94.7338 95.8C94.7338 113.028 98.6979 126.809 107.038 136.73ZM155.427 116.952C153.003 120.641 149.296 122.6 143.734 122.6C138.172 122.6 134.465 120.641 132.041 116.952C129.473 113.045 127.934 106.188 127.934 95.8C127.934 85.3987 129.478 78.6365 132.019 74.8811C134.427 71.3217 138.135 69.4 143.734 69.4C149.333 69.4 153.041 71.3217 155.449 74.8811C157.99 78.6365 159.534 85.3987 159.534 95.8C159.534 106.188 157.995 113.045 155.427 116.952Z" fill="white" stroke="black" stroke-width="6"/>
<mask id="path-2-outside-1" maskUnits="userSpaceOnUse" x="0.5" y="0" width="688" height="155" fill="black">
<rect fill="white" x="0.5" width="688" height="155"/>
<path d="M59.9 148.4C45.5 148.4 34.4333 145.867 26.7 140.8C18.9667 135.733 13.6333 128.267 10.7 118.4C7.9 108.4 6.5 95.1333 6.5 78.6C6.5 60.4667 8.03333 46.3333 11.1 36.2C14.3 26.0667 19.5667 18.8 26.9 14.4C34.2333 9.86667 44.5 7.6 57.7 7.6C69.6173 7.6 82.8853 9.33648 97.5038 12.8094C97.9665 12.9194 98.2876 13.3416 98.2703 13.8169L97.5407 33.8797C97.519 34.4766 96.9816 34.9213 96.3907 34.8334C83.6974 32.9445 73.3339 32 65.3 32C56.9 32 50.5667 33.3333 46.3 36C42.0333 38.6667 39.0333 43.0667 37.3 49.2C35.7 55.2 34.9 63.7333 34.9 74.8V82.2C35.1667 93.6667 35.9667 102.267 37.3 108C38.7667 113.6 41.5667 117.667 45.7 120.2C49.8333 122.733 56.1667 124 64.7 124C73.5024 124 84.0641 123.121 96.3853 121.361C96.9784 121.276 97.514 121.727 97.5299 122.325L98.0779 142.967C98.0907 143.45 97.7556 143.873 97.2831 143.971C83.089 146.924 70.628 148.4 59.9 148.4Z"/>
<path d="M201.379 64.5C201.379 63.9477 201.827 63.5 202.379 63.5H227.179C227.731 63.5 228.179 63.9477 228.179 64.5V145C228.179 145.552 227.731 146 227.179 146H202.379C201.827 146 201.379 145.552 201.379 145V64.5Z"/>
<path d="M234.5 47C234.5 46.4477 234.948 46 235.5 46H260.1C260.652 46 261.1 46.4477 261.1 47V49.8656C261.1 50.6359 261.935 51.1179 262.608 50.7426C267.058 48.2604 271.021 46.4795 274.5 45.4C278.5 44.2 282.767 43.6 287.3 43.6C299.567 43.6 308.3 47.5333 313.5 55.4C318.7 63.2667 321.3 75.4 321.3 91.8V145C321.3 145.552 320.852 146 320.3 146H295.5C294.948 146 294.5 145.552 294.5 145V92.6C294.5 83.4 293.367 76.9333 291.1 73.2C288.967 69.4667 284.833 67.6 278.7 67.6C274.3 67.6 269.3 68.5333 263.7 70.4L261.984 70.9721C261.575 71.1082 261.3 71.4903 261.3 71.9208V145C261.3 145.552 260.852 146 260.3 146H235.5C234.948 146 234.5 145.552 234.5 145V47Z"/>
<path d="M344.283 36C344.283 35.4477 343.835 35 343.283 35H308.883C308.331 35 307.883 34.5523 307.883 34V11.6C307.883 11.0477 308.331 10.6 308.883 10.6H406.883C407.435 10.6 407.883 11.0477 407.883 11.6V34C407.883 34.5523 407.435 35 406.883 35H372.883C372.331 35 371.883 35.4477 371.883 36V145.6C371.883 146.152 371.435 146.6 370.883 146.6H345.283C344.731 146.6 344.283 146.152 344.283 145.6V36Z"/>
<path d="M379.083 47C379.083 46.4477 379.531 46 380.083 46H404.683C405.235 46 405.683 46.4477 405.683 47V54.8619C405.683 55.633 406.522 56.1114 407.188 55.722C415.666 50.762 418.414 48.965 426.5 47.5L432.359 46.6631C432.961 46.577 433.5 47.0445 433.5 47.653V66.7822C433.5 67.259 433.227 67.6594 432.759 67.7516C432.652 67.7728 432.337 67.8347 431.5 68C423.265 69.8018 416.282 73.1051 409.533 76.5L406.318 78.7021C406.046 78.8885 405.883 79.1972 405.883 79.5271V145C405.883 145.552 405.435 146 404.883 146H380.083C379.531 146 379.083 145.552 379.083 145V47Z"/>
<path d="M456.497 148.4C435.831 148.4 425.497 137.467 425.497 115.6C425.497 105.2 428.231 97.7333 433.697 93.2C439.297 88.5333 448.231 85.8 460.497 85L480.972 83.4692C481.494 83.4302 481.897 82.9953 481.897 82.472V77.2C481.897 73.2 480.964 70.4 479.097 68.8C477.364 67.2 474.033 66.745 470.097 66.4C465.533 66 460.733 65.6 453 66C447.406 66 444.018 66.43 439.45 66.8912C438.863 66.9505 438.353 66.4886 438.353 65.8982V52.5L438.512 46.5552C438.524 46.087 438.862 45.6893 439.322 45.6029C451.471 43.3225 461.365 43.6 472.497 43.6C485.297 43.6 494.497 46.2667 500.097 51.6C505.831 56.9333 508.698 65.4667 508.698 77.2V118.8C508.964 122.133 509.498 124.4 510.298 125.6C511.203 126.762 511.013 126.048 512.364 128.275C512.454 128.422 512.502 128.591 512.507 128.763L512.974 146.974C512.988 147.537 512.534 148 511.972 147.999C505.659 147.991 501.822 147.886 497.897 147C494.057 146.104 490.218 144.348 486.378 141.732C486.08 141.529 485.695 141.497 485.369 141.651C475.809 146.151 466.185 148.4 456.497 148.4ZM462.297 126.6C467.364 126.6 472.897 125.8 478.897 124.2L481.155 123.598C481.592 123.481 481.897 123.085 481.897 122.632V103.092C481.897 102.505 481.394 102.044 480.809 102.096L463.697 103.6C456.231 104.267 452.497 108.267 452.497 115.6C452.497 122.933 455.764 126.6 462.297 126.6Z"/>
<path d="M555.501 148.4C541.101 148.4 530.634 144.267 524.101 136C517.701 127.6 514.499 114.267 514.499 96C514.499 77.4667 517.834 64.1333 524.501 56C531.167 47.7333 542.035 43.6 557.101 43.6C560.968 43.6 565.235 43.9333 569.901 44.6C574.402 45.243 580.392 46.32 587.868 47.8312C588.348 47.9282 588.687 48.3591 588.669 48.8484L587.941 68.143C587.919 68.7169 587.42 69.1546 586.848 69.1015C576.079 68.1005 568.563 67.6 564.301 67.6C558.168 67.6 553.501 68.4667 550.301 70.2C547.101 71.8 544.835 74.6 543.501 78.6C542.301 82.6 541.701 88.3333 541.701 95.8C541.701 103.4 542.301 109.2 543.501 113.2C544.835 117.2 547.101 120.067 550.301 121.8C553.635 123.533 558.435 124.4 564.701 124.4L586.832 122.874C587.41 122.834 587.901 123.292 587.901 123.871V145.179C587.901 145.656 587.561 146.068 587.092 146.158C573.375 148.785 563.348 148.4 555.501 148.4Z"/>
<path d="M594.037 7C594.037 6.44771 594.485 6 595.037 6H619.837C620.389 6 620.837 6.44772 620.837 7V84.4081C620.837 85.0299 621.398 85.5009 622.011 85.3929L630.553 83.8854C630.858 83.8316 631.121 83.6392 631.265 83.3646L650.556 46.536C650.729 46.2065 651.07 46 651.442 46H679.148C679.908 46 680.39 46.8145 680.025 47.4809L655.094 92.9313C654.933 93.2241 654.93 93.5779 655.084 93.8742L681.475 144.538C681.822 145.204 681.339 146 680.589 146H652.645C652.272 146 651.929 145.792 651.757 145.46L632.171 107.644C631.972 107.26 631.548 107.047 631.121 107.117L621.675 108.663C621.192 108.742 620.837 109.16 620.837 109.65V145C620.837 145.552 620.389 146 619.837 146H595.037C594.485 146 594.037 145.552 594.037 145V7Z"/>
</mask>
<path d="M59.9 148.4C45.5 148.4 34.4333 145.867 26.7 140.8C18.9667 135.733 13.6333 128.267 10.7 118.4C7.9 108.4 6.5 95.1333 6.5 78.6C6.5 60.4667 8.03333 46.3333 11.1 36.2C14.3 26.0667 19.5667 18.8 26.9 14.4C34.2333 9.86667 44.5 7.6 57.7 7.6C69.6173 7.6 82.8853 9.33648 97.5038 12.8094C97.9665 12.9194 98.2876 13.3416 98.2703 13.8169L97.5407 33.8797C97.519 34.4766 96.9816 34.9213 96.3907 34.8334C83.6974 32.9445 73.3339 32 65.3 32C56.9 32 50.5667 33.3333 46.3 36C42.0333 38.6667 39.0333 43.0667 37.3 49.2C35.7 55.2 34.9 63.7333 34.9 74.8V82.2C35.1667 93.6667 35.9667 102.267 37.3 108C38.7667 113.6 41.5667 117.667 45.7 120.2C49.8333 122.733 56.1667 124 64.7 124C73.5024 124 84.0641 123.121 96.3853 121.361C96.9784 121.276 97.514 121.727 97.5299 122.325L98.0779 142.967C98.0907 143.45 97.7556 143.873 97.2831 143.971C83.089 146.924 70.628 148.4 59.9 148.4Z" fill="white"/>
<path d="M201.379 64.5C201.379 63.9477 201.827 63.5 202.379 63.5H227.179C227.731 63.5 228.179 63.9477 228.179 64.5V145C228.179 145.552 227.731 146 227.179 146H202.379C201.827 146 201.379 145.552 201.379 145V64.5Z" fill="white"/>
<path d="M234.5 47C234.5 46.4477 234.948 46 235.5 46H260.1C260.652 46 261.1 46.4477 261.1 47V49.8656C261.1 50.6359 261.935 51.1179 262.608 50.7426C267.058 48.2604 271.021 46.4795 274.5 45.4C278.5 44.2 282.767 43.6 287.3 43.6C299.567 43.6 308.3 47.5333 313.5 55.4C318.7 63.2667 321.3 75.4 321.3 91.8V145C321.3 145.552 320.852 146 320.3 146H295.5C294.948 146 294.5 145.552 294.5 145V92.6C294.5 83.4 293.367 76.9333 291.1 73.2C288.967 69.4667 284.833 67.6 278.7 67.6C274.3 67.6 269.3 68.5333 263.7 70.4L261.984 70.9721C261.575 71.1082 261.3 71.4903 261.3 71.9208V145C261.3 145.552 260.852 146 260.3 146H235.5C234.948 146 234.5 145.552 234.5 145V47Z" fill="white"/>
<path d="M344.283 36C344.283 35.4477 343.835 35 343.283 35H308.883C308.331 35 307.883 34.5523 307.883 34V11.6C307.883 11.0477 308.331 10.6 308.883 10.6H406.883C407.435 10.6 407.883 11.0477 407.883 11.6V34C407.883 34.5523 407.435 35 406.883 35H372.883C372.331 35 371.883 35.4477 371.883 36V145.6C371.883 146.152 371.435 146.6 370.883 146.6H345.283C344.731 146.6 344.283 146.152 344.283 145.6V36Z" fill="white"/>
<path d="M379.083 47C379.083 46.4477 379.531 46 380.083 46H404.683C405.235 46 405.683 46.4477 405.683 47V54.8619C405.683 55.633 406.522 56.1114 407.188 55.722C415.666 50.762 418.414 48.965 426.5 47.5L432.359 46.6631C432.961 46.577 433.5 47.0445 433.5 47.653V66.7822C433.5 67.259 433.227 67.6594 432.759 67.7516C432.652 67.7728 432.337 67.8347 431.5 68C423.265 69.8018 416.282 73.1051 409.533 76.5L406.318 78.7021C406.046 78.8885 405.883 79.1972 405.883 79.5271V145C405.883 145.552 405.435 146 404.883 146H380.083C379.531 146 379.083 145.552 379.083 145V47Z" fill="white"/>
<path d="M456.497 148.4C435.831 148.4 425.497 137.467 425.497 115.6C425.497 105.2 428.231 97.7333 433.697 93.2C439.297 88.5333 448.231 85.8 460.497 85L480.972 83.4692C481.494 83.4302 481.897 82.9953 481.897 82.472V77.2C481.897 73.2 480.964 70.4 479.097 68.8C477.364 67.2 474.033 66.745 470.097 66.4C465.533 66 460.733 65.6 453 66C447.406 66 444.018 66.43 439.45 66.8912C438.863 66.9505 438.353 66.4886 438.353 65.8982V52.5L438.512 46.5552C438.524 46.087 438.862 45.6893 439.322 45.6029C451.471 43.3225 461.365 43.6 472.497 43.6C485.297 43.6 494.497 46.2667 500.097 51.6C505.831 56.9333 508.698 65.4667 508.698 77.2V118.8C508.964 122.133 509.498 124.4 510.298 125.6C511.203 126.762 511.013 126.048 512.364 128.275C512.454 128.422 512.502 128.591 512.507 128.763L512.974 146.974C512.988 147.537 512.534 148 511.972 147.999C505.659 147.991 501.822 147.886 497.897 147C494.057 146.104 490.218 144.348 486.378 141.732C486.08 141.529 485.695 141.497 485.369 141.651C475.809 146.151 466.185 148.4 456.497 148.4ZM462.297 126.6C467.364 126.6 472.897 125.8 478.897 124.2L481.155 123.598C481.592 123.481 481.897 123.085 481.897 122.632V103.092C481.897 102.505 481.394 102.044 480.809 102.096L463.697 103.6C456.231 104.267 452.497 108.267 452.497 115.6C452.497 122.933 455.764 126.6 462.297 126.6Z" fill="white"/>
<path d="M555.501 148.4C541.101 148.4 530.634 144.267 524.101 136C517.701 127.6 514.499 114.267 514.499 96C514.499 77.4667 517.834 64.1333 524.501 56C531.167 47.7333 542.035 43.6 557.101 43.6C560.968 43.6 565.235 43.9333 569.901 44.6C574.402 45.243 580.392 46.32 587.868 47.8312C588.348 47.9282 588.687 48.3591 588.669 48.8484L587.941 68.143C587.919 68.7169 587.42 69.1546 586.848 69.1015C576.079 68.1005 568.563 67.6 564.301 67.6C558.168 67.6 553.501 68.4667 550.301 70.2C547.101 71.8 544.835 74.6 543.501 78.6C542.301 82.6 541.701 88.3333 541.701 95.8C541.701 103.4 542.301 109.2 543.501 113.2C544.835 117.2 547.101 120.067 550.301 121.8C553.635 123.533 558.435 124.4 564.701 124.4L586.832 122.874C587.41 122.834 587.901 123.292 587.901 123.871V145.179C587.901 145.656 587.561 146.068 587.092 146.158C573.375 148.785 563.348 148.4 555.501 148.4Z" fill="white"/>
<path d="M594.037 7C594.037 6.44771 594.485 6 595.037 6H619.837C620.389 6 620.837 6.44772 620.837 7V84.4081C620.837 85.0299 621.398 85.5009 622.011 85.3929L630.553 83.8854C630.858 83.8316 631.121 83.6392 631.265 83.3646L650.556 46.536C650.729 46.2065 651.07 46 651.442 46H679.148C679.908 46 680.39 46.8145 680.025 47.4809L655.094 92.9313C654.933 93.2241 654.93 93.5779 655.084 93.8742L681.475 144.538C681.822 145.204 681.339 146 680.589 146H652.645C652.272 146 651.929 145.792 651.757 145.46L632.171 107.644C631.972 107.26 631.548 107.047 631.121 107.117L621.675 108.663C621.192 108.742 620.837 109.16 620.837 109.65V145C620.837 145.552 620.389 146 619.837 146H595.037C594.485 146 594.037 145.552 594.037 145V7Z" fill="white"/>
<path d="M59.9 148.4C45.5 148.4 34.4333 145.867 26.7 140.8C18.9667 135.733 13.6333 128.267 10.7 118.4C7.9 108.4 6.5 95.1333 6.5 78.6C6.5 60.4667 8.03333 46.3333 11.1 36.2C14.3 26.0667 19.5667 18.8 26.9 14.4C34.2333 9.86667 44.5 7.6 57.7 7.6C69.6173 7.6 82.8853 9.33648 97.5038 12.8094C97.9665 12.9194 98.2876 13.3416 98.2703 13.8169L97.5407 33.8797C97.519 34.4766 96.9816 34.9213 96.3907 34.8334C83.6974 32.9445 73.3339 32 65.3 32C56.9 32 50.5667 33.3333 46.3 36C42.0333 38.6667 39.0333 43.0667 37.3 49.2C35.7 55.2 34.9 63.7333 34.9 74.8V82.2C35.1667 93.6667 35.9667 102.267 37.3 108C38.7667 113.6 41.5667 117.667 45.7 120.2C49.8333 122.733 56.1667 124 64.7 124C73.5024 124 84.0641 123.121 96.3853 121.361C96.9784 121.276 97.514 121.727 97.5299 122.325L98.0779 142.967C98.0907 143.45 97.7556 143.873 97.2831 143.971C83.089 146.924 70.628 148.4 59.9 148.4Z" stroke="black" stroke-width="12" mask="url(#path-2-outside-1)"/>
<path d="M201.379 64.5C201.379 63.9477 201.827 63.5 202.379 63.5H227.179C227.731 63.5 228.179 63.9477 228.179 64.5V145C228.179 145.552 227.731 146 227.179 146H202.379C201.827 146 201.379 145.552 201.379 145V64.5Z" stroke="black" stroke-width="12" mask="url(#path-2-outside-1)"/>
<path d="M234.5 47C234.5 46.4477 234.948 46 235.5 46H260.1C260.652 46 261.1 46.4477 261.1 47V49.8656C261.1 50.6359 261.935 51.1179 262.608 50.7426C267.058 48.2604 271.021 46.4795 274.5 45.4C278.5 44.2 282.767 43.6 287.3 43.6C299.567 43.6 308.3 47.5333 313.5 55.4C318.7 63.2667 321.3 75.4 321.3 91.8V145C321.3 145.552 320.852 146 320.3 146H295.5C294.948 146 294.5 145.552 294.5 145V92.6C294.5 83.4 293.367 76.9333 291.1 73.2C288.967 69.4667 284.833 67.6 278.7 67.6C274.3 67.6 269.3 68.5333 263.7 70.4L261.984 70.9721C261.575 71.1082 261.3 71.4903 261.3 71.9208V145C261.3 145.552 260.852 146 260.3 146H235.5C234.948 146 234.5 145.552 234.5 145V47Z" stroke="black" stroke-width="12" mask="url(#path-2-outside-1)"/>
<path d="M344.283 36C344.283 35.4477 343.835 35 343.283 35H308.883C308.331 35 307.883 34.5523 307.883 34V11.6C307.883 11.0477 308.331 10.6 308.883 10.6H406.883C407.435 10.6 407.883 11.0477 407.883 11.6V34C407.883 34.5523 407.435 35 406.883 35H372.883C372.331 35 371.883 35.4477 371.883 36V145.6C371.883 146.152 371.435 146.6 370.883 146.6H345.283C344.731 146.6 344.283 146.152 344.283 145.6V36Z" stroke="black" stroke-width="12" mask="url(#path-2-outside-1)"/>
<path d="M379.083 47C379.083 46.4477 379.531 46 380.083 46H404.683C405.235 46 405.683 46.4477 405.683 47V54.8619C405.683 55.633 406.522 56.1114 407.188 55.722C415.666 50.762 418.414 48.965 426.5 47.5L432.359 46.6631C432.961 46.577 433.5 47.0445 433.5 47.653V66.7822C433.5 67.259 433.227 67.6594 432.759 67.7516C432.652 67.7728 432.337 67.8347 431.5 68C423.265 69.8018 416.282 73.1051 409.533 76.5L406.318 78.7021C406.046 78.8885 405.883 79.1972 405.883 79.5271V145C405.883 145.552 405.435 146 404.883 146H380.083C379.531 146 379.083 145.552 379.083 145V47Z" stroke="black" stroke-width="12" mask="url(#path-2-outside-1)"/>
<path d="M456.497 148.4C435.831 148.4 425.497 137.467 425.497 115.6C425.497 105.2 428.231 97.7333 433.697 93.2C439.297 88.5333 448.231 85.8 460.497 85L480.972 83.4692C481.494 83.4302 481.897 82.9953 481.897 82.472V77.2C481.897 73.2 480.964 70.4 479.097 68.8C477.364 67.2 474.033 66.745 470.097 66.4C465.533 66 460.733 65.6 453 66C447.406 66 444.018 66.43 439.45 66.8912C438.863 66.9505 438.353 66.4886 438.353 65.8982V52.5L438.512 46.5552C438.524 46.087 438.862 45.6893 439.322 45.6029C451.471 43.3225 461.365 43.6 472.497 43.6C485.297 43.6 494.497 46.2667 500.097 51.6C505.831 56.9333 508.698 65.4667 508.698 77.2V118.8C508.964 122.133 509.498 124.4 510.298 125.6C511.203 126.762 511.013 126.048 512.364 128.275C512.454 128.422 512.502 128.591 512.507 128.763L512.974 146.974C512.988 147.537 512.534 148 511.972 147.999C505.659 147.991 501.822 147.886 497.897 147C494.057 146.104 490.218 144.348 486.378 141.732C486.08 141.529 485.695 141.497 485.369 141.651C475.809 146.151 466.185 148.4 456.497 148.4ZM462.297 126.6C467.364 126.6 472.897 125.8 478.897 124.2L481.155 123.598C481.592 123.481 481.897 123.085 481.897 122.632V103.092C481.897 102.505 481.394 102.044 480.809 102.096L463.697 103.6C456.231 104.267 452.497 108.267 452.497 115.6C452.497 122.933 455.764 126.6 462.297 126.6Z" stroke="black" stroke-width="12" mask="url(#path-2-outside-1)"/>
<path d="M555.501 148.4C541.101 148.4 530.634 144.267 524.101 136C517.701 127.6 514.499 114.267 514.499 96C514.499 77.4667 517.834 64.1333 524.501 56C531.167 47.7333 542.035 43.6 557.101 43.6C560.968 43.6 565.235 43.9333 569.901 44.6C574.402 45.243 580.392 46.32 587.868 47.8312C588.348 47.9282 588.687 48.3591 588.669 48.8484L587.941 68.143C587.919 68.7169 587.42 69.1546 586.848 69.1015C576.079 68.1005 568.563 67.6 564.301 67.6C558.168 67.6 553.501 68.4667 550.301 70.2C547.101 71.8 544.835 74.6 543.501 78.6C542.301 82.6 541.701 88.3333 541.701 95.8C541.701 103.4 542.301 109.2 543.501 113.2C544.835 117.2 547.101 120.067 550.301 121.8C553.635 123.533 558.435 124.4 564.701 124.4L586.832 122.874C587.41 122.834 587.901 123.292 587.901 123.871V145.179C587.901 145.656 587.561 146.068 587.092 146.158C573.375 148.785 563.348 148.4 555.501 148.4Z" stroke="black" stroke-width="12" mask="url(#path-2-outside-1)"/>
<path d="M594.037 7C594.037 6.44771 594.485 6 595.037 6H619.837C620.389 6 620.837 6.44772 620.837 7V84.4081C620.837 85.0299 621.398 85.5009 622.011 85.3929L630.553 83.8854C630.858 83.8316 631.121 83.6392 631.265 83.3646L650.556 46.536C650.729 46.2065 651.07 46 651.442 46H679.148C679.908 46 680.39 46.8145 680.025 47.4809L655.094 92.9313C654.933 93.2241 654.93 93.5779 655.084 93.8742L681.475 144.538C681.822 145.204 681.339 146 680.589 146H652.645C652.272 146 651.929 145.792 651.757 145.46L632.171 107.644C631.972 107.26 631.548 107.047 631.121 107.117L621.675 108.663C621.192 108.742 620.837 109.16 620.837 109.65V145C620.837 145.552 620.389 146 619.837 146H595.037C594.485 146 594.037 145.552 594.037 145V7Z" stroke="black" stroke-width="12" mask="url(#path-2-outside-1)"/>
<path d="M176.599 115.922L176.599 115.921L197.385 85.6717C197.785 85.0884 198 84.3973 198 83.6895V75V61H209.56C210.541 61 211.476 60.589 212.139 59.8669L223.302 47.7063C224.741 46.1391 224.46 43.6615 222.708 42.4558L208.002 32.3394C206.409 31.2438 204.23 31.6467 203.135 33.2392L165.204 88.3768L158.891 79.7194L158.891 79.7193C153.568 72.4206 142.719 72.3064 137.244 79.4915L137.199 79.5505L137.158 79.6121L128.574 92.3844C128.24 92.8812 128.023 93.476 127.988 94.1259C127.913 95.5066 127.653 101.947 129.064 108.062C129.606 110.41 130.392 113.039 131.259 115.186C131.689 116.252 132.171 117.277 132.691 118.108C132.951 118.524 133.258 118.95 133.617 119.323C133.954 119.674 134.482 120.129 135.209 120.372C136.209 120.705 137.052 120.36 137.359 120.216C137.746 120.036 138.071 119.798 138.305 119.608C138.788 119.216 139.293 118.694 139.773 118.155C140.752 117.055 141.916 115.553 143.076 113.982C144.798 111.65 146.596 109.044 147.914 107.098L154.568 116.224L154.568 116.224C160.053 123.745 171.323 123.59 176.599 115.922Z" fill="#3A95FF" stroke="black" stroke-width="5"/>
<path d="M213 58.5C222.665 58.5 230.5 50.665 230.5 41C230.5 31.335 222.665 23.5 213 23.5C203.335 23.5 195.5 31.335 195.5 41C195.5 50.665 203.335 58.5 213 58.5Z" fill="white" stroke="black" stroke-width="5"/>
</svg>
