<svg width="676" height="143" viewBox="0 0 676 143" fill="none" xmlns="http://www.w3.org/2000/svg">
<path d="M53.4 142.4C39 142.4 27.9333 139.867 20.2 134.8C12.4667 129.733 7.13333 122.267 4.2 112.4C1.4 102.4 0 89.1333 0 72.6C0 54.4667 1.53333 40.3333 4.6 30.2C7.8 20.0667 13.0667 12.8 20.4 8.4C27.7333 3.86667 38 1.6 51.2 1.6C63.3333 1.6 76.8667 3.4 91.8 7.00001L91 29C77.8 27 67.0667 26 58.8 26C50.4 26 44.0667 27.3333 39.8 30C35.5333 32.6667 32.5333 37.0667 30.8 43.2C29.2 49.2 28.4 57.7333 28.4 68.8V76.2C28.6667 87.6667 29.4667 96.2667 30.8 102C32.2667 107.6 35.0667 111.667 39.2 114.2C43.3333 116.733 49.6667 118 58.2 118C67.2667 118 78.2 117.067 91 115.2L91.6 137.8C77.0667 140.867 64.3333 142.4 53.4 142.4Z" fill="black"/>
<path d="M137.234 142.4C122.167 142.4 110.7 137.867 102.834 128.8C95.1005 119.6 91.2338 106.6 91.2338 89.8C91.2338 73.1333 95.1005 60.2667 102.834 51.2C110.7 42.1333 122.167 37.6 137.234 37.6C152.301 37.6 163.701 42.1333 171.434 51.2C179.301 60.2667 183.234 73.1333 183.234 89.8C183.234 106.6 179.301 119.6 171.434 128.8C163.701 137.867 152.301 142.4 137.234 142.4ZM137.234 119.6C143.634 119.6 148.367 117.267 151.434 112.6C154.501 107.933 156.034 100.333 156.034 89.8C156.034 79.2667 154.501 71.7333 151.434 67.2C148.367 62.6667 143.634 60.4 137.234 60.4C130.834 60.4 126.101 62.6667 123.034 67.2C119.967 71.7333 118.434 79.2667 118.434 89.8C118.434 100.333 119.967 107.933 123.034 112.6C126.101 117.267 130.834 119.6 137.234 119.6Z" fill="black"/>
<path d="M194.879 57.5H221.679V140H194.879V57.5Z" fill="black"/>
<path d="M228 40H254.6V45.6C259.667 42.6667 264.133 40.6 268 39.4C272 38.2 276.267 37.6 280.8 37.6C293.067 37.6 301.8 41.5333 307 49.4C312.2 57.2667 314.8 69.4 314.8 85.8V140H288V86.6C288 77.4 286.867 70.9333 284.6 67.2C282.467 63.4667 278.333 61.6 272.2 61.6C267.8 61.6 262.8 62.5333 257.2 64.4L254.8 65.2V140H228V40Z" fill="black"/>
<path d="M337.783 29H301.383V4.60001H401.383V29H365.383V140.6H337.783V29Z" fill="black"/>
<path d="M372.583 40H399.183V50.6C408.871 44.9676 411.454 43.0484 420 41.5L427 40.5V61.6021C425.28 61.946 427.533 61.5 425 62C416.765 63.8018 409.782 67.1051 403.033 70.5L399.383 73V140H372.583V40Z" fill="black"/>
<path d="M449.997 142.4C429.331 142.4 418.997 131.467 418.997 109.6C418.997 99.2 421.731 91.7333 427.197 87.2C432.797 82.5333 441.731 79.8 453.997 79L475.397 77.4V71.2C475.397 67.2 474.464 64.4 472.597 62.8C470.864 61.2 467.533 60.745 463.597 60.4C459.033 60 454.233 59.6 446.5 60C440.467 60 437 60.5 431.853 61V46.5L432.033 39.754C444.545 37.3104 454.625 37.6 465.997 37.6C478.797 37.6 487.997 40.2667 493.597 45.6C499.331 50.9333 502.198 59.4667 502.198 71.2V112.8C502.464 116.133 502.998 118.4 503.798 119.6C504.732 120.8 506.399 121.667 508.799 122.2L507.999 142.4C501.066 142.4 495.531 141.933 491.397 141C487.397 140.067 483.397 138.2 479.397 135.4C469.664 140.067 459.864 142.4 449.997 142.4ZM455.797 120.6C460.864 120.6 466.397 119.8 472.397 118.2L475.397 117.4V96L457.197 97.6C449.731 98.2667 445.997 102.267 445.997 109.6C445.997 116.933 449.264 120.6 455.797 120.6Z" fill="black"/>
<path d="M549.001 142.4C534.601 142.4 524.134 138.267 517.601 130C511.201 121.6 507.999 108.267 507.999 90C507.999 71.4667 511.334 58.1333 518.001 50C524.667 41.7333 535.535 37.6 550.601 37.6C554.468 37.6 558.735 37.9333 563.401 38.6C568.068 39.2667 574.335 40.4 582.201 42L581.401 63.2C570.068 62.1333 562.201 61.6 557.801 61.6C551.668 61.6 547.001 62.4667 543.801 64.2C540.601 65.8 538.335 68.6 537.001 72.6C535.801 76.6 535.201 82.3333 535.201 89.8C535.201 97.4 535.801 103.2 537.001 107.2C538.335 111.2 540.601 114.067 543.801 115.8C547.135 117.533 551.935 118.4 558.201 118.4L581.401 116.8L582.201 138.2C568.068 141 557.001 142.4 549.001 142.4Z" fill="black"/>
<path d="M587.537 0H614.337V79.6L624.537 77.8L644.337 40H674.337L648.337 87.4L675.737 140H645.537L625.337 101L614.337 102.8V140H587.537V0Z" fill="black"/>
<path fill-rule="evenodd" clip-rule="evenodd" d="M215.739 39.1678L203.127 57.5H194.872V69.5L168.039 108.505C163.74 114.753 154.557 114.879 150.088 108.751L141.324 96.7316L126 116C126 116 121.5 112.5 120 106C118.5 99.5 118.5 94.5 118.5 94.5L132.733 75.0067C137.194 69.1521 146.034 69.2451 150.371 75.1923L158.763 86.7015L199.261 27.8323L215.739 39.1678Z" fill="#3A95FF"/>
<circle cx="206.5" cy="35" r="15" fill="black"/>
</svg>
