<svg width="677" height="143" viewBox="0 0 677 143" fill="none" xmlns="http://www.w3.org/2000/svg">
<path d="M53.9 142.4C39.5 142.4 28.4333 139.867 20.7 134.8C12.9667 129.733 7.63333 122.267 4.7 112.4C1.9 102.4 0.5 89.1333 0.5 72.6C0.5 54.4667 2.03333 40.3333 5.1 30.2C8.3 20.0667 13.5667 12.8 20.9 8.4C28.2333 3.86667 38.5 1.6 51.7 1.6C63.8333 1.6 77.3667 3.4 92.3 7.00001L91.5 29C78.3 27 67.5667 26 59.3 26C50.9 26 44.5667 27.3333 40.3 30C36.0333 32.6667 33.0333 37.0667 31.3 43.2C29.7 49.2 28.9 57.7333 28.9 68.8V76.2C29.1667 87.6667 29.9667 96.2667 31.3 102C32.7667 107.6 35.5667 111.667 39.7 114.2C43.8333 116.733 50.1667 118 58.7 118C67.7667 118 78.7 117.067 91.5 115.2L92.1 137.8C77.5667 140.867 64.8333 142.4 53.9 142.4Z" fill="white"/>
<path d="M137.734 142.4C122.667 142.4 111.201 137.867 103.334 128.8C95.6005 119.6 91.7338 106.6 91.7338 89.8C91.7338 73.1333 95.6005 60.2667 103.334 51.2C111.201 42.1333 122.667 37.6 137.734 37.6C152.801 37.6 164.201 42.1333 171.934 51.2C179.801 60.2667 183.734 73.1333 183.734 89.8C183.734 106.6 179.801 119.6 171.934 128.8C164.201 137.867 152.801 142.4 137.734 142.4ZM137.734 119.6C144.134 119.6 148.867 117.267 151.934 112.6C155.001 107.933 156.534 100.333 156.534 89.8C156.534 79.2667 155.001 71.7333 151.934 67.2C148.867 62.6667 144.134 60.4 137.734 60.4C131.334 60.4 126.601 62.6667 123.534 67.2C120.467 71.7333 118.934 79.2667 118.934 89.8C118.934 100.333 120.467 107.933 123.534 112.6C126.601 117.267 131.334 119.6 137.734 119.6Z" fill="white"/>
<path d="M195.379 57.5H222.179V140H195.379V57.5Z" fill="white"/>
<path d="M228.5 40H255.1V45.6C260.167 42.6667 264.633 40.6 268.5 39.4C272.5 38.2 276.767 37.6 281.3 37.6C293.567 37.6 302.3 41.5333 307.5 49.4C312.7 57.2667 315.3 69.4 315.3 85.8V140H288.5V86.6C288.5 77.4 287.367 70.9333 285.1 67.2C282.967 63.4667 278.833 61.6 272.7 61.6C268.3 61.6 263.3 62.5333 257.7 64.4L255.3 65.2V140H228.5V40Z" fill="white"/>
<path d="M338.283 29H301.883V4.60001H401.883V29H365.883V140.6H338.283V29Z" fill="white"/>
<path d="M373.083 40H399.683V50.6C409.371 44.9676 411.954 43.0484 420.5 41.5L427.5 40.5V61.6021C425.78 61.946 428.033 61.5 425.5 62C417.265 63.8018 410.282 67.1051 403.533 70.5L399.883 73V140H373.083V40Z" fill="white"/>
<path d="M450.497 142.4C429.831 142.4 419.497 131.467 419.497 109.6C419.497 99.2 422.231 91.7333 427.697 87.2C433.297 82.5333 442.231 79.8 454.497 79L475.897 77.4V71.2C475.897 67.2 474.964 64.4 473.097 62.8C471.364 61.2 468.033 60.745 464.097 60.4C459.533 60 454.733 59.6 447 60C440.967 60 437.5 60.5 432.353 61V46.5L432.533 39.754C445.045 37.3104 455.125 37.6 466.497 37.6C479.297 37.6 488.497 40.2667 494.097 45.6C499.831 50.9333 502.698 59.4667 502.698 71.2V112.8C502.964 116.133 503.498 118.4 504.298 119.6C505.232 120.8 506.899 121.667 509.299 122.2L508.499 142.4C501.566 142.4 496.031 141.933 491.897 141C487.897 140.067 483.897 138.2 479.897 135.4C470.164 140.067 460.364 142.4 450.497 142.4ZM456.297 120.6C461.364 120.6 466.897 119.8 472.897 118.2L475.897 117.4V96L457.697 97.6C450.231 98.2667 446.497 102.267 446.497 109.6C446.497 116.933 449.764 120.6 456.297 120.6Z" fill="white"/>
<path d="M549.501 142.4C535.101 142.4 524.634 138.267 518.101 130C511.701 121.6 508.499 108.267 508.499 90C508.499 71.4667 511.834 58.1333 518.501 50C525.167 41.7333 536.035 37.6 551.101 37.6C554.968 37.6 559.235 37.9333 563.901 38.6C568.568 39.2667 574.835 40.4 582.701 42L581.901 63.2C570.568 62.1333 562.701 61.6 558.301 61.6C552.168 61.6 547.501 62.4667 544.301 64.2C541.101 65.8 538.835 68.6 537.501 72.6C536.301 76.6 535.701 82.3333 535.701 89.8C535.701 97.4 536.301 103.2 537.501 107.2C538.835 111.2 541.101 114.067 544.301 115.8C547.635 117.533 552.435 118.4 558.701 118.4L581.901 116.8L582.701 138.2C568.568 141 557.501 142.4 549.501 142.4Z" fill="white"/>
<path d="M588.037 0H614.837V79.6L625.037 77.8L644.837 40H674.837L648.837 87.4L676.237 140H646.037L625.837 101L614.837 102.8V140H588.037V0Z" fill="white"/>
<path fill-rule="evenodd" clip-rule="evenodd" d="M216.239 39.1678L203.627 57.5H195.372V69.5L168.539 108.505C164.24 114.753 155.057 114.879 150.588 108.751L141.824 96.7316L126.5 116C126.5 116 122 112.5 120.5 106C119 99.5 119 94.5 119 94.5L133.233 75.0067C137.694 69.1521 146.534 69.2451 150.871 75.1923L159.263 86.7015L199.761 27.8323L216.239 39.1678Z" fill="#3A95FF"/>
<circle cx="207" cy="35" r="15" fill="white"/>
</svg>
