<svg width="693" height="155" viewBox="0 0 693 155" fill="none" xmlns="http://www.w3.org/2000/svg">
<path d="M7.81111 119.209L7.81756 119.232L7.82438 119.255C10.9353 129.719 16.6615 137.809 25.0558 143.309C33.4798 148.829 45.2165 151.4 59.9 151.4C71.1003 151.4 84.0495 149.831 98.7195 146.735L101.165 146.219L101.099 143.72L100.499 121.12L100.409 117.744L97.067 118.231C84.3554 120.086 73.5752 121 64.7 121C56.354 121 50.6925 119.741 47.2675 117.642C43.9284 115.596 41.526 112.264 40.2126 107.28C38.9579 101.86 38.1657 93.5345 37.9 82.165V74.8C37.9 63.8389 38.6968 55.6186 40.1929 49.9946C41.7802 44.3922 44.4149 40.7159 47.89 38.544C51.4584 36.3137 57.1263 35 65.3 35C73.3536 35 83.9208 35.9768 97.0506 37.9661L100.376 38.47L100.498 35.109L101.298 13.109L101.387 10.6583L99.0031 10.0836C83.8974 6.44198 70.123 4.6 57.7 4.6C44.2257 4.6 33.3336 6.90213 25.3395 11.8377C17.245 16.7008 11.6019 24.6484 8.23925 35.2966L8.23383 35.3138L8.22861 35.331C5.03713 45.8767 3.5 60.3501 3.5 78.6C3.5 95.2657 4.90714 108.838 7.81111 119.209Z" fill="white" stroke="black" stroke-width="6"/>
<path d="M107.038 136.73L107.053 136.748L107.068 136.766C115.645 146.651 128.037 151.4 143.734 151.4C159.427 151.4 171.766 146.653 180.214 136.75C188.698 126.828 192.734 113.039 192.734 95.8C192.734 78.6964 188.699 65.0347 180.208 55.2435C171.761 45.3453 159.423 40.6 143.734 40.6C128.037 40.6 115.645 45.349 107.068 55.2339L107.06 55.2435L107.051 55.2531C98.6998 65.0446 94.7338 78.7019 94.7338 95.8C94.7338 113.028 98.6979 126.809 107.038 136.73ZM155.427 116.952C153.003 120.641 149.296 122.6 143.734 122.6C138.172 122.6 134.465 120.641 132.041 116.952C129.473 113.045 127.934 106.188 127.934 95.8C127.934 85.3987 129.478 78.6365 132.019 74.8811C134.427 71.3217 138.135 69.4 143.734 69.4C149.333 69.4 153.041 71.3217 155.449 74.8811C157.99 78.6365 159.534 85.3987 159.534 95.8C159.534 106.188 157.995 113.045 155.427 116.952Z" fill="white" stroke="black" stroke-width="6"/>
<path d="M201.379 60.5H198.379V63.5V146V149H201.379H228.179H231.179V146V63.5V60.5H228.179H201.379Z" fill="white" stroke="black" stroke-width="6"/>
<path d="M234.5 43H231.5V46V146V149H234.5H261.3H264.3V146V73.3623L264.649 73.2461L264.649 73.246C270.04 71.4488 274.711 70.6 278.7 70.6C284.267 70.6 287.109 72.2616 288.495 74.6882L288.515 74.7229L288.536 74.7571C290.342 77.7314 291.5 83.4638 291.5 92.6V146V149H294.5H321.3H324.3V146V91.8C324.3 75.195 321.688 62.3469 316.003 53.7457C310.083 44.7904 300.235 40.6 287.3 40.6C282.5 40.6 277.94 41.2358 273.638 42.5265L273.624 42.5306L273.611 42.5348C270.697 43.439 267.524 44.7821 264.1 46.5395V46V43H261.1H234.5Z" fill="white" stroke="black" stroke-width="6"/>
<path d="M304.883 35V38H307.883H341.283V146.6V149.6H344.283H371.883H374.883V146.6V38H407.883H410.883V35V10.6V7.60001H407.883H307.883H304.883V10.6V35Z" fill="white" stroke="black" stroke-width="6"/>
<path d="M379.083 43H376.083V46V146V149H379.083H405.883H408.883V146V80.5814L411.061 79.0894C417.715 75.7465 424.354 72.6388 432.111 70.9372L433.219 70.7186L433.374 70.6882C433.374 70.6881 433.399 70.6832 433.418 70.6792L433.435 70.6757C433.439 70.6748 433.456 70.6713 433.477 70.6664C433.57 70.6477 433.751 70.6114 434.088 70.5439L436.5 70.0617V67.6021V46.5V43.041L433.076 43.5302L426.076 44.5302L426.02 44.5381L425.965 44.5481C418.416 45.9158 415.031 47.6627 408.683 51.3686V46V43H405.683H379.083ZM433.365 70.6897C433.369 70.689 433.364 70.6899 433.358 70.691L433.365 70.6897ZM434.594 67.6021C434.382 66.7528 433.93 66.0605 433.5 65.5715V64.8914C433.887 65.0268 434.407 65.2533 434.795 65.5265C435.149 66.1312 435.283 66.88 435.28 67.6021C435.275 68.7294 434.938 69.7919 434.588 70.1402C434.526 70.1827 434.455 70.2281 434.382 70.2723C434.782 69.2756 434.787 68.374 434.594 67.6021ZM434.069 70.4484C434.072 70.447 434.075 70.4457 434.078 70.4443C434.075 70.4459 434.072 70.4475 434.069 70.4491C434.015 70.4777 433.97 70.5 433.941 70.5129C433.88 70.538 433.777 70.5764 433.736 70.5905C433.692 70.6054 433.653 70.6173 433.624 70.6258C433.715 70.5941 433.886 70.5293 434.069 70.4484Z" fill="white" stroke="black" stroke-width="6"/>
<path d="M477.062 71.0042L477.103 71.0418L477.145 71.0779C478.025 71.8324 478.897 73.5379 478.897 77.2V80.6159L460.288 82.0073C447.789 82.8241 438.098 85.6286 431.779 90.8931C425.356 96.2218 422.497 104.735 422.497 115.6C422.497 126.955 425.177 136.029 431.067 142.261C436.987 148.524 445.657 151.4 456.497 151.4C466.319 151.4 476.037 149.194 485.629 144.836C489.42 147.289 493.283 149.004 497.216 149.922L497.226 149.924L497.237 149.926C501.68 150.929 507.465 151.4 514.499 151.4H517.383L517.497 148.519L518.297 128.319L518.396 125.815L515.949 125.271C513.987 124.836 513.103 124.246 512.739 123.845C512.613 123.618 512.415 123.15 512.218 122.313C512.003 121.398 511.823 120.197 511.698 118.679V77.2C511.698 65.0567 508.737 55.5485 502.153 49.4156C495.726 43.3036 485.584 40.6 472.497 40.6C471.4 40.6 470.312 40.5972 469.229 40.5943C459.166 40.5681 449.564 40.543 437.958 42.8096L435.598 43.2705L435.534 45.674L435.354 52.42L435.353 52.46V52.5V67V70.3056L438.643 69.9859C439.624 69.8907 440.536 69.7965 441.409 69.7063C445.195 69.3153 448.248 69 453 69H453.078L453.155 68.996C460.684 68.6065 465.325 68.9933 469.835 69.3885C471.798 69.5606 473.429 69.7471 474.746 70.0521C476.1 70.3656 476.763 70.7283 477.062 71.0042ZM478.124 121.301C472.322 122.849 467.052 123.6 462.297 123.6C459.589 123.6 458.079 122.856 457.187 121.854C456.236 120.787 455.497 118.884 455.497 115.6C455.497 112.43 456.298 110.425 457.49 109.147C458.692 107.86 460.692 106.881 463.961 106.588C463.962 106.588 463.963 106.588 463.964 106.588L478.897 105.275V121.095L478.124 121.301Z" fill="white" stroke="black" stroke-width="6"/>
<path d="M521.715 137.818L521.731 137.839L521.747 137.86C529.04 147.088 540.542 151.4 555.501 151.4C563.793 151.4 575.085 149.956 589.284 147.143L591.795 146.645L591.699 144.088L590.899 122.688L590.783 119.594L587.695 119.807L564.599 121.4C558.603 121.39 554.405 120.544 551.707 119.15C549.305 117.841 547.493 115.66 546.361 112.294C545.296 108.714 544.701 103.275 544.701 95.8C544.701 88.4642 545.295 83.0886 546.361 79.5061C547.493 76.1405 549.291 74.0593 551.643 72.8833L551.687 72.8613L551.73 72.8379C554.287 71.4529 558.367 70.6 564.301 70.6C568.542 70.6 576.279 71.1194 587.62 72.1868L590.779 72.4842L590.899 69.3131L591.699 48.1131L591.795 45.5679L589.299 45.0602C581.409 43.4554 575.077 42.3089 570.325 41.6302C565.548 40.9475 561.137 40.6 557.101 40.6C541.531 40.6 529.619 44.8807 522.173 54.1075C514.844 63.0557 511.499 77.2539 511.499 96C511.499 114.494 514.718 128.634 521.715 137.818Z" fill="white" stroke="black" stroke-width="6"/>
<path d="M594.037 3H591.037V6V146V149H594.037H620.837H623.837V146V111.349L630.174 110.312L649.373 147.38L650.212 149H652.037H682.237H687.182L684.898 144.614L658.239 93.4365L683.467 47.4428L685.904 43H680.837H650.837H649.022L648.179 44.608L629.064 81.1019L623.837 82.0242V6V3H620.837H594.037Z" fill="white" stroke="black" stroke-width="6"/>
<path d="M224.081 46.8585L226.026 44.7388L223.656 43.1081L207.178 31.7726L205.118 30.3557L203.701 32.4154L165.204 88.3768L158.891 79.7194L158.891 79.7193C153.568 72.4206 142.719 72.3064 137.244 79.4915L137.199 79.5505L137.158 79.6121L128.425 92.6054L128.054 93.1579L128.006 93.8219L130.5 94C128.006 93.8219 128.006 93.8223 128.006 93.8227L128.006 93.8236L128.006 93.8259L128.006 93.8325L128.004 93.8533L128 93.9246C127.996 93.9853 127.991 94.0717 127.985 94.1821C127.973 94.4029 127.959 94.7198 127.946 95.1181C127.922 95.9139 127.906 97.0387 127.938 98.3735C128.003 101.025 128.262 104.585 129.064 108.062C129.606 110.41 130.392 113.039 131.259 115.186C131.689 116.252 132.171 117.277 132.691 118.108C132.951 118.524 133.258 118.95 133.617 119.323C133.954 119.674 134.482 120.129 135.209 120.372C136.377 120.761 137.345 120.235 137.597 120.095C137.993 119.874 138.341 119.589 138.611 119.346C139.169 118.843 139.785 118.161 140.397 117.43C141.64 115.946 143.116 113.959 144.509 112.005C145.755 110.26 146.96 108.506 147.914 107.098L154.568 116.224L154.568 116.224C160.053 123.745 171.323 123.59 176.599 115.922L176.599 115.921L197.56 85.4158L198 84.7761V84V75V61H210H211.099L211.842 60.1907L224.081 46.8585Z" fill="#3A95FF" stroke="black" stroke-width="5"/>
<path d="M213 58.5C222.665 58.5 230.5 50.665 230.5 41C230.5 31.335 222.665 23.5 213 23.5C203.335 23.5 195.5 31.335 195.5 41C195.5 50.665 203.335 58.5 213 58.5Z" fill="white" stroke="black" stroke-width="5"/>
</svg>
