<svg width="92" height="105" viewBox="0 0 92 105" fill="none" xmlns="http://www.w3.org/2000/svg">
<path d="M46.0003 104.8C30.9336 104.8 19.4668 100.267 11.6001 91.2C3.86677 82 0 69 0 52.2C0 35.5333 3.86677 22.6667 11.6001 13.6C19.4668 4.53333 30.9336 0 46.0003 0C61.0669 0 72.467 4.53333 80.2003 13.6C88.067 22.6667 92.0003 35.5333 92.0003 52.2C92.0003 69 88.067 82 80.2003 91.2C72.467 100.267 61.0669 104.8 46.0003 104.8ZM46.0003 82C52.4003 82 57.1336 79.6666 60.2003 75C63.267 70.3333 64.8003 62.7333 64.8003 52.2C64.8003 41.6666 63.267 34.1333 60.2003 29.6C57.1336 25.0666 52.4003 22.8 46.0003 22.8C39.6003 22.8 34.8668 25.0666 31.8002 29.6C28.7335 34.1333 27.2002 41.6666 27.2002 52.2C27.2002 62.7333 28.7335 70.3333 31.8002 75C34.8668 79.6666 39.6003 82 46.0003 82Z" fill="white"/>
<path d="M66.7996 69.6376C62.501 75.8861 53.3174 76.0121 48.8489 69.8839L40.0847 57.8645L30.7605 73.3994C30.7605 73.3994 27.7819 67.1866 27.2605 60.1323C26.7392 53.0781 27.7607 41.3994 27.7607 41.3994L31.4934 36.1396C35.9541 30.285 44.7947 30.378 49.1312 36.3252L57.5233 47.8344L66.7996 24.6323L84.2551 32.1323L76.7551 50.1323L71.7551 60.1323L66.7996 69.6376Z" fill="#3A95FF"/>
<path d="M80.384 10.4549C82.2246 9.05992 84.8849 10.1805 85.1727 12.4719L88.8357 41.6368C89.1234 43.9282 86.8228 45.6719 84.6945 44.7754L57.6055 33.3652C55.4771 32.4687 55.1174 29.6045 56.9579 28.2095L80.384 10.4549Z" fill="#3A95FF"/>
</svg>
