<?xml version="1.0" encoding="UTF-8"?>
<svg width="265px" height="350px" viewBox="0 0 265 350" version="1.1" xmlns="http://www.w3.org/2000/svg" xmlns:xlink="http://www.w3.org/1999/xlink">
    <!-- Generator: Sketch 52.3 (67297) - http://www.bohemiancoding.com/sketch -->
    <title>E</title>
    <desc>Created with Sketch.</desc>
    <g id="Page-1" stroke="none" stroke-width="1" fill="none" fill-rule="evenodd">
        <path d="M250.75,270 C254.416685,270 257.58332,271.33332 260.25,274 C262.91668,276.66668 264.25,279.833315 264.25,283.5 L264.25,336.5 C264.25,340.166685 262.91668,343.33332 260.25,346 C257.58332,348.66668 254.416685,350 250.75,350 L13.75,350 C10.083315,350 6.91668,348.66668 4.25,346 C1.58332,343.33332 0.25,340.166685 0.25,336.5 L0.25,13.5 C0.25,9.833315 1.58332,6.66668 4.25,4 C6.91668,1.33332 10.083315,0 13.75,0 L246.75,0 C250.416685,0 253.58332,1.33332 256.25,4 C258.91668,6.66668 260.25,9.833315 260.25,13.5 L260.25,66.5 C260.25,70.166685 258.91668,73.33332 256.25,76 C253.58332,78.66668 250.416685,80 246.75,80 L92.75,80 L92.75,134 L235.75,134 C239.416685,134 242.58332,135.33332 245.25,138 C247.91668,140.66668 249.25,143.833315 249.25,147.5 L249.25,200.5 C249.25,204.166685 247.91668,207.33332 245.25,210 C242.58332,212.66668 239.416685,214 235.75,214 L92.75,214 L92.75,270 L250.75,270 Z" id="E" fill="#000000"></path>
    </g>
</svg>