<?xml version="1.0" encoding="UTF-8"?>
<svg width="259px" height="350px" viewBox="0 0 259 350" version="1.1" xmlns="http://www.w3.org/2000/svg" xmlns:xlink="http://www.w3.org/1999/xlink">
    <!-- Generator: Sketch 52.3 (67297) - http://www.bohemiancoding.com/sketch -->
    <title>L</title>
    <desc>Created with Sketch.</desc>
    <g id="Page-1" stroke="none" stroke-width="1" fill="none" fill-rule="evenodd">
        <path d="M245,270 C248.666685,270 251.83332,271.33332 254.5,274 C257.16668,276.66668 258.5,279.833315 258.5,283.5 L258.5,336.5 C258.5,340.166685 257.16668,343.33332 254.5,346 C251.83332,348.66668 248.666685,350 245,350 L13.5,350 C9.833315,350 6.66668,348.66668 4,346 C1.33332,343.33332 0,340.166685 0,336.5 L0,13.5 C0,9.833315 1.33332,6.66668 4,4 C6.66668,1.33332 9.833315,0 13.5,0 L79,0 C82.666685,0 85.83332,1.33332 88.5,4 C91.16668,6.66668 92.5,9.833315 92.5,13.5 L92.5,270 L245,270 Z" id="L" fill="#000000"></path>
    </g>
</svg>