<?xml version="1.0" encoding="UTF-8"?>
<svg width="344px" height="345px" viewBox="0 0 344 345" version="1.1" xmlns="http://www.w3.org/2000/svg" xmlns:xlink="http://www.w3.org/1999/xlink">
    <!-- Generator: Sketch 52.3 (67297) - http://www.bohemiancoding.com/sketch -->
    <title>Path</title>
    <desc>Created with Sketch.</desc>
    <g id="Page-1" stroke="none" stroke-width="1" fill="none" fill-rule="evenodd">
        <path d="M211.787931,0 C218.370339,0 223.389351,1.80712479 226.845115,5.42142857 C230.300879,9.03573236 232.686967,12.6499819 234.003448,16.2642857 L341.625287,326.764286 C342.941769,330.050016 343.6,332.514277 343.6,334.157143 C343.6,337.114301 342.530375,339.660704 340.391092,341.796429 C338.251809,343.932154 335.701164,345 332.73908,345 L270.535632,345 C263.953224,345 259.263328,343.603585 256.465805,340.810714 C253.668281,338.017843 251.940425,335.307156 251.282184,332.678571 L237.459195,291.771429 L174.679789,291.771429 L174.679789,230.821429 L226.845115,230.821429 L174.679789,92 L123.666379,230.821429 L174.679789,230.821429 L174.679789,291.771429 L106.140805,291.771429 L92.3178161,332.678571 C91.6595753,335.307156 89.931719,338.017843 87.1341954,340.810714 C84.3366718,343.603585 79.6467762,345 73.0643678,345 L10.8609195,345 C7.89883576,345 5.34819077,343.932154 3.20890805,341.796429 C1.06962532,339.660704 0,337.114301 0,334.157143 C0,332.514277 0.658230966,330.050016 1.97471264,326.764286 L109.596552,16.2642857 C110.913033,12.6499819 113.299121,9.03573236 116.754885,5.42142857 C120.210649,1.80712479 125.229661,0 131.812069,0 L211.787931,0 Z" id="Path" fill="#000000"></path>
    </g>
</svg>