<?xml version="1.0" encoding="UTF-8"?>
<svg width="345px" height="350px" viewBox="0 0 345 350" version="1.1" xmlns="http://www.w3.org/2000/svg" xmlns:xlink="http://www.w3.org/1999/xlink">
    <!-- Generator: Sketch 52.3 (67297) - http://www.bohemiancoding.com/sketch -->
    <title>X</title>
    <desc>Created with Sketch.</desc>
    <g id="Page-1" stroke="none" stroke-width="1" fill="none" fill-rule="evenodd">
        <path d="M172.25,248.5 L108.25,338.5 C106.24999,341.500015 104.000013,344.166655 101.5,346.5 C98.9999875,348.833345 94.4167,350 87.75,350 L11.75,350 C8.749985,350 6.1666775,348.916677 4,346.75 C1.8333225,344.583323 0.75,342.000015 0.75,339 C0.75,338.33333 0.8333325,337.583337 1,336.75 C1.1666675,335.916663 1.58333,334.83334 2.25,333.5 L117.75,172 L7.25,16.5 C6.249995,14.49999 5.75,12.666675 5.75,11 C5.75,7.999985 6.8333225,5.4166775 9,3.25 C11.1666775,1.0833225 13.749985,0 16.75,0 L92.25,0 C98.9167,0 103.749985,1.66665 106.75,5 C109.750015,8.33335 111.91666,10.833325 113.25,12.5 L173.75,97 L232.25,12.5 C233.58334,10.833325 235.749985,8.33335 238.75,5 C241.750015,1.66665 246.5833,0 253.25,0 L329.75,0 C332.750015,0 335.333323,1.0833225 337.5,3.25 C339.666677,5.4166775 340.75,7.999985 340.75,11 C340.75,12.666675 340.250005,14.49999 339.25,16.5 L228.25,174 L342.75,333.5 C343.41667,334.83334 343.833332,335.916663 344,336.75 C344.166668,337.583337 344.25,338.33333 344.25,339 C344.25,342.000015 343.166677,344.583323 341,346.75 C338.833323,348.916677 336.250015,350 333.25,350 L257.25,350 C250.5833,350 246.000013,348.833345 243.5,346.5 C240.999987,344.166655 238.75001,341.500015 236.75,338.5 L172.25,248.5 Z" id="X" fill="#000000"></path>
    </g>
</svg>